M48
; DRILL file {KiCad 8.0.4-8.0.4-0~ubuntu22.04.1} date 2024-09-03T23:50:52+0200
; FORMAT={-:-/ absolute / inch / decimal}
; #@! TF.CreationDate,2024-09-03T23:50:52+02:00
; #@! TF.GenerationSoftware,Kicad,Pcbnew,8.0.4-8.0.4-0~ubuntu22.04.1
; #@! TF.FileFunction,Plated,1,2,PTH
FMAT,2
INCH
; #@! TA.AperFunction,Plated,PTH,ViaDrill
T1C0.0100
; #@! TA.AperFunction,Plated,PTH,ComponentDrill
T2C0.0236
%
G90
G05
T1
X1.9669Y-1.7898
X1.973Y-2.2429
X1.9744Y-2.0675
X1.9758Y-1.8924
X1.9803Y-2.4178
X2.04Y-1.9972
X2.0495Y-2.3403
X2.0515Y-2.1832
X2.0584Y-1.7898
X2.1005Y-1.8685
X2.1261Y-2.4228
X2.1499Y-1.7898
X2.1636Y-2.0534
X2.1776Y-2.1491
X2.1822Y-2.029
X2.1832Y-2.0643
X2.2015Y-2.3493
X2.2159Y-1.9071
X2.2202Y-2.2283
X2.2414Y-1.7898
X2.28Y-1.8792
X2.2976Y-1.9697
X2.3006Y-2.4192
X2.302Y-1.9399
X2.3255Y-1.9857
X2.3308Y-2.2199
X2.3401Y-2.3148
X2.3454Y-1.9955
X2.3886Y-2.0343
X2.39Y-2.0654
X2.4102Y-1.8793
X2.4122Y-1.8047
X2.4183Y-2.3529
X2.4385Y-2.2164
X2.4514Y-2.0971
X2.4723Y-1.8913
X2.4757Y-2.4224
X2.4964Y-1.9674
X2.5034Y-2.1042
X2.5163Y-2.0532
X2.5179Y-2.3339
X2.5301Y-1.9705
X2.5309Y-2.0232
X2.5866Y-2.2773
X2.5867Y-2.0541
X2.5868Y-1.8378
X2.5877Y-2.1495
X2.5931Y-1.9533
X2.6056Y-2.2697
X2.6092Y-2.0922
X2.6138Y-2.0097
X2.6156Y-2.0482
X2.7062Y-2.4228
X2.7081Y-2.0488
X2.7091Y-1.9872
X2.7258Y-2.3975
X2.7293Y-2.1625
X2.7325Y-2.2781
X2.7328Y-1.9764
X2.7355Y-2.3381
X2.7517Y-2.3649
X2.755Y-2.1676
X2.7628Y-2.3477
X2.7643Y-2.0186
X2.7671Y-2.0456
X2.7685Y-2.1322
X2.7687Y-1.8947
X2.7704Y-1.8176
X2.801Y-2.1197
X2.8108Y-2.0256
X2.8121Y-2.3658
X2.8525Y-1.8557
X2.8548Y-1.8941
X2.8569Y-2.4228
X2.875Y-1.9947
X2.8926Y-1.975
X2.9131Y-1.9716
X2.9145Y-1.8409
X2.9156Y-2.0402
X2.9191Y-2.095
X2.9334Y-2.1399
X2.9347Y-1.8928
X2.942Y-2.0074
X2.9573Y-2.3485
X2.9676Y-2.2606
X2.9718Y-2.1849
X2.977Y-2.0489
X2.9991Y-2.2726
X3.0112Y-1.8976
X3.031Y-1.8564
X3.0594Y-1.9566
X3.0597Y-2.0203
X3.0597Y-2.4228
X3.0631Y-2.2235
X3.0642Y-2.2439
X3.1512Y-1.7898
X3.1512Y-2.0203
X3.1512Y-2.2447
X3.1512Y-2.4228
T2
G00X2.074Y-2.1083
M15
G01X2.074Y-2.1516
M16
G05
G00X2.074Y-2.2787
M15
G01X2.074Y-2.3102
M16
G05
G00X2.4142Y-2.1083
M15
G01X2.4142Y-2.1516
M16
G05
G00X2.4142Y-2.2787
M15
G01X2.4142Y-2.3102
M16
G05
M30
