%TF.GenerationSoftware,KiCad,Pcbnew,8.0.4-8.0.4-0~ubuntu22.04.1*%
%TF.CreationDate,2024-09-03T23:48:02+02:00*%
%TF.ProjectId,Powermeter,506f7765-726d-4657-9465-722e6b696361,rev?*%
%TF.SameCoordinates,Original*%
%TF.FileFunction,Drillmap*%
%TF.FilePolarity,Positive*%
%FSLAX45Y45*%
G04 Gerber Fmt 4.5, Leading zero omitted, Abs format (unit mm)*
G04 Created by KiCad (PCBNEW 8.0.4-8.0.4-0~ubuntu22.04.1) date 2024-09-03 23:48:02*
%MOMM*%
%LPD*%
G01*
G04 APERTURE LIST*
%ADD10C,0.050000*%
%ADD11C,0.200000*%
%ADD12C,0.100000*%
G04 APERTURE END LIST*
D10*
X4950000Y-4500000D02*
X8050000Y-4500000D01*
X8050000Y-6200000D01*
X4950000Y-6200000D01*
X4950000Y-4500000D01*
D11*
D12*
X5378500Y-5427500D02*
X5443500Y-5492500D01*
X5443500Y-5427500D02*
X5378500Y-5492500D01*
X5956500Y-5427500D02*
X6021500Y-5492500D01*
X6021500Y-5427500D02*
X5956500Y-5492500D01*
D11*
X5208277Y-6513984D02*
X5208277Y-6313984D01*
X5208277Y-6313984D02*
X5255896Y-6313984D01*
X5255896Y-6313984D02*
X5284467Y-6323508D01*
X5284467Y-6323508D02*
X5303515Y-6342555D01*
X5303515Y-6342555D02*
X5313039Y-6361603D01*
X5313039Y-6361603D02*
X5322563Y-6399698D01*
X5322563Y-6399698D02*
X5322563Y-6428269D01*
X5322563Y-6428269D02*
X5313039Y-6466365D01*
X5313039Y-6466365D02*
X5303515Y-6485412D01*
X5303515Y-6485412D02*
X5284467Y-6504460D01*
X5284467Y-6504460D02*
X5255896Y-6513984D01*
X5255896Y-6513984D02*
X5208277Y-6513984D01*
X5408277Y-6513984D02*
X5408277Y-6380650D01*
X5408277Y-6418746D02*
X5417801Y-6399698D01*
X5417801Y-6399698D02*
X5427324Y-6390174D01*
X5427324Y-6390174D02*
X5446372Y-6380650D01*
X5446372Y-6380650D02*
X5465420Y-6380650D01*
X5532086Y-6513984D02*
X5532086Y-6380650D01*
X5532086Y-6313984D02*
X5522563Y-6323508D01*
X5522563Y-6323508D02*
X5532086Y-6333031D01*
X5532086Y-6333031D02*
X5541610Y-6323508D01*
X5541610Y-6323508D02*
X5532086Y-6313984D01*
X5532086Y-6313984D02*
X5532086Y-6333031D01*
X5655896Y-6513984D02*
X5636848Y-6504460D01*
X5636848Y-6504460D02*
X5627324Y-6485412D01*
X5627324Y-6485412D02*
X5627324Y-6313984D01*
X5760658Y-6513984D02*
X5741610Y-6504460D01*
X5741610Y-6504460D02*
X5732086Y-6485412D01*
X5732086Y-6485412D02*
X5732086Y-6313984D01*
X5989229Y-6513984D02*
X5989229Y-6313984D01*
X5989229Y-6313984D02*
X6055896Y-6456841D01*
X6055896Y-6456841D02*
X6122562Y-6313984D01*
X6122562Y-6313984D02*
X6122562Y-6513984D01*
X6303515Y-6513984D02*
X6303515Y-6409222D01*
X6303515Y-6409222D02*
X6293991Y-6390174D01*
X6293991Y-6390174D02*
X6274943Y-6380650D01*
X6274943Y-6380650D02*
X6236848Y-6380650D01*
X6236848Y-6380650D02*
X6217801Y-6390174D01*
X6303515Y-6504460D02*
X6284467Y-6513984D01*
X6284467Y-6513984D02*
X6236848Y-6513984D01*
X6236848Y-6513984D02*
X6217801Y-6504460D01*
X6217801Y-6504460D02*
X6208277Y-6485412D01*
X6208277Y-6485412D02*
X6208277Y-6466365D01*
X6208277Y-6466365D02*
X6217801Y-6447317D01*
X6217801Y-6447317D02*
X6236848Y-6437793D01*
X6236848Y-6437793D02*
X6284467Y-6437793D01*
X6284467Y-6437793D02*
X6303515Y-6428269D01*
X6398753Y-6380650D02*
X6398753Y-6580650D01*
X6398753Y-6390174D02*
X6417801Y-6380650D01*
X6417801Y-6380650D02*
X6455896Y-6380650D01*
X6455896Y-6380650D02*
X6474943Y-6390174D01*
X6474943Y-6390174D02*
X6484467Y-6399698D01*
X6484467Y-6399698D02*
X6493991Y-6418746D01*
X6493991Y-6418746D02*
X6493991Y-6475888D01*
X6493991Y-6475888D02*
X6484467Y-6494936D01*
X6484467Y-6494936D02*
X6474943Y-6504460D01*
X6474943Y-6504460D02*
X6455896Y-6513984D01*
X6455896Y-6513984D02*
X6417801Y-6513984D01*
X6417801Y-6513984D02*
X6398753Y-6504460D01*
X6579705Y-6494936D02*
X6589229Y-6504460D01*
X6589229Y-6504460D02*
X6579705Y-6513984D01*
X6579705Y-6513984D02*
X6570182Y-6504460D01*
X6570182Y-6504460D02*
X6579705Y-6494936D01*
X6579705Y-6494936D02*
X6579705Y-6513984D01*
X6579705Y-6390174D02*
X6589229Y-6399698D01*
X6589229Y-6399698D02*
X6579705Y-6409222D01*
X6579705Y-6409222D02*
X6570182Y-6399698D01*
X6570182Y-6399698D02*
X6579705Y-6390174D01*
X6579705Y-6390174D02*
X6579705Y-6409222D01*
D12*
X4882500Y-6810000D02*
X4947500Y-6875000D01*
X4947500Y-6810000D02*
X4882500Y-6875000D01*
D11*
X5246372Y-6733984D02*
X5265420Y-6733984D01*
X5265420Y-6733984D02*
X5284467Y-6743508D01*
X5284467Y-6743508D02*
X5293991Y-6753031D01*
X5293991Y-6753031D02*
X5303515Y-6772079D01*
X5303515Y-6772079D02*
X5313039Y-6810174D01*
X5313039Y-6810174D02*
X5313039Y-6857793D01*
X5313039Y-6857793D02*
X5303515Y-6895888D01*
X5303515Y-6895888D02*
X5293991Y-6914936D01*
X5293991Y-6914936D02*
X5284467Y-6924460D01*
X5284467Y-6924460D02*
X5265420Y-6933984D01*
X5265420Y-6933984D02*
X5246372Y-6933984D01*
X5246372Y-6933984D02*
X5227324Y-6924460D01*
X5227324Y-6924460D02*
X5217801Y-6914936D01*
X5217801Y-6914936D02*
X5208277Y-6895888D01*
X5208277Y-6895888D02*
X5198753Y-6857793D01*
X5198753Y-6857793D02*
X5198753Y-6810174D01*
X5198753Y-6810174D02*
X5208277Y-6772079D01*
X5208277Y-6772079D02*
X5217801Y-6753031D01*
X5217801Y-6753031D02*
X5227324Y-6743508D01*
X5227324Y-6743508D02*
X5246372Y-6733984D01*
X5398753Y-6914936D02*
X5408277Y-6924460D01*
X5408277Y-6924460D02*
X5398753Y-6933984D01*
X5398753Y-6933984D02*
X5389229Y-6924460D01*
X5389229Y-6924460D02*
X5398753Y-6914936D01*
X5398753Y-6914936D02*
X5398753Y-6933984D01*
X5579705Y-6733984D02*
X5541610Y-6733984D01*
X5541610Y-6733984D02*
X5522563Y-6743508D01*
X5522563Y-6743508D02*
X5513039Y-6753031D01*
X5513039Y-6753031D02*
X5493991Y-6781603D01*
X5493991Y-6781603D02*
X5484467Y-6819698D01*
X5484467Y-6819698D02*
X5484467Y-6895888D01*
X5484467Y-6895888D02*
X5493991Y-6914936D01*
X5493991Y-6914936D02*
X5503515Y-6924460D01*
X5503515Y-6924460D02*
X5522563Y-6933984D01*
X5522563Y-6933984D02*
X5560658Y-6933984D01*
X5560658Y-6933984D02*
X5579705Y-6924460D01*
X5579705Y-6924460D02*
X5589229Y-6914936D01*
X5589229Y-6914936D02*
X5598753Y-6895888D01*
X5598753Y-6895888D02*
X5598753Y-6848269D01*
X5598753Y-6848269D02*
X5589229Y-6829222D01*
X5589229Y-6829222D02*
X5579705Y-6819698D01*
X5579705Y-6819698D02*
X5560658Y-6810174D01*
X5560658Y-6810174D02*
X5522563Y-6810174D01*
X5522563Y-6810174D02*
X5503515Y-6819698D01*
X5503515Y-6819698D02*
X5493991Y-6829222D01*
X5493991Y-6829222D02*
X5484467Y-6848269D01*
X5779705Y-6733984D02*
X5684467Y-6733984D01*
X5684467Y-6733984D02*
X5674943Y-6829222D01*
X5674943Y-6829222D02*
X5684467Y-6819698D01*
X5684467Y-6819698D02*
X5703515Y-6810174D01*
X5703515Y-6810174D02*
X5751134Y-6810174D01*
X5751134Y-6810174D02*
X5770182Y-6819698D01*
X5770182Y-6819698D02*
X5779705Y-6829222D01*
X5779705Y-6829222D02*
X5789229Y-6848269D01*
X5789229Y-6848269D02*
X5789229Y-6895888D01*
X5789229Y-6895888D02*
X5779705Y-6914936D01*
X5779705Y-6914936D02*
X5770182Y-6924460D01*
X5770182Y-6924460D02*
X5751134Y-6933984D01*
X5751134Y-6933984D02*
X5703515Y-6933984D01*
X5703515Y-6933984D02*
X5684467Y-6924460D01*
X5684467Y-6924460D02*
X5674943Y-6914936D01*
X5913039Y-6733984D02*
X5932086Y-6733984D01*
X5932086Y-6733984D02*
X5951134Y-6743508D01*
X5951134Y-6743508D02*
X5960658Y-6753031D01*
X5960658Y-6753031D02*
X5970182Y-6772079D01*
X5970182Y-6772079D02*
X5979705Y-6810174D01*
X5979705Y-6810174D02*
X5979705Y-6857793D01*
X5979705Y-6857793D02*
X5970182Y-6895888D01*
X5970182Y-6895888D02*
X5960658Y-6914936D01*
X5960658Y-6914936D02*
X5951134Y-6924460D01*
X5951134Y-6924460D02*
X5932086Y-6933984D01*
X5932086Y-6933984D02*
X5913039Y-6933984D01*
X5913039Y-6933984D02*
X5893991Y-6924460D01*
X5893991Y-6924460D02*
X5884467Y-6914936D01*
X5884467Y-6914936D02*
X5874943Y-6895888D01*
X5874943Y-6895888D02*
X5865420Y-6857793D01*
X5865420Y-6857793D02*
X5865420Y-6810174D01*
X5865420Y-6810174D02*
X5874943Y-6772079D01*
X5874943Y-6772079D02*
X5884467Y-6753031D01*
X5884467Y-6753031D02*
X5893991Y-6743508D01*
X5893991Y-6743508D02*
X5913039Y-6733984D01*
X6065420Y-6933984D02*
X6065420Y-6800650D01*
X6065420Y-6819698D02*
X6074943Y-6810174D01*
X6074943Y-6810174D02*
X6093991Y-6800650D01*
X6093991Y-6800650D02*
X6122563Y-6800650D01*
X6122563Y-6800650D02*
X6141610Y-6810174D01*
X6141610Y-6810174D02*
X6151134Y-6829222D01*
X6151134Y-6829222D02*
X6151134Y-6933984D01*
X6151134Y-6829222D02*
X6160658Y-6810174D01*
X6160658Y-6810174D02*
X6179705Y-6800650D01*
X6179705Y-6800650D02*
X6208277Y-6800650D01*
X6208277Y-6800650D02*
X6227324Y-6810174D01*
X6227324Y-6810174D02*
X6236848Y-6829222D01*
X6236848Y-6829222D02*
X6236848Y-6933984D01*
X6332086Y-6933984D02*
X6332086Y-6800650D01*
X6332086Y-6819698D02*
X6341610Y-6810174D01*
X6341610Y-6810174D02*
X6360658Y-6800650D01*
X6360658Y-6800650D02*
X6389229Y-6800650D01*
X6389229Y-6800650D02*
X6408277Y-6810174D01*
X6408277Y-6810174D02*
X6417801Y-6829222D01*
X6417801Y-6829222D02*
X6417801Y-6933984D01*
X6417801Y-6829222D02*
X6427324Y-6810174D01*
X6427324Y-6810174D02*
X6446372Y-6800650D01*
X6446372Y-6800650D02*
X6474943Y-6800650D01*
X6474943Y-6800650D02*
X6493991Y-6810174D01*
X6493991Y-6810174D02*
X6503515Y-6829222D01*
X6503515Y-6829222D02*
X6503515Y-6933984D01*
X6893991Y-6724460D02*
X6722563Y-6981603D01*
X7151134Y-6733984D02*
X7170182Y-6733984D01*
X7170182Y-6733984D02*
X7189229Y-6743508D01*
X7189229Y-6743508D02*
X7198753Y-6753031D01*
X7198753Y-6753031D02*
X7208277Y-6772079D01*
X7208277Y-6772079D02*
X7217801Y-6810174D01*
X7217801Y-6810174D02*
X7217801Y-6857793D01*
X7217801Y-6857793D02*
X7208277Y-6895888D01*
X7208277Y-6895888D02*
X7198753Y-6914936D01*
X7198753Y-6914936D02*
X7189229Y-6924460D01*
X7189229Y-6924460D02*
X7170182Y-6933984D01*
X7170182Y-6933984D02*
X7151134Y-6933984D01*
X7151134Y-6933984D02*
X7132086Y-6924460D01*
X7132086Y-6924460D02*
X7122563Y-6914936D01*
X7122563Y-6914936D02*
X7113039Y-6895888D01*
X7113039Y-6895888D02*
X7103515Y-6857793D01*
X7103515Y-6857793D02*
X7103515Y-6810174D01*
X7103515Y-6810174D02*
X7113039Y-6772079D01*
X7113039Y-6772079D02*
X7122563Y-6753031D01*
X7122563Y-6753031D02*
X7132086Y-6743508D01*
X7132086Y-6743508D02*
X7151134Y-6733984D01*
X7303515Y-6914936D02*
X7313039Y-6924460D01*
X7313039Y-6924460D02*
X7303515Y-6933984D01*
X7303515Y-6933984D02*
X7293991Y-6924460D01*
X7293991Y-6924460D02*
X7303515Y-6914936D01*
X7303515Y-6914936D02*
X7303515Y-6933984D01*
X7436848Y-6733984D02*
X7455896Y-6733984D01*
X7455896Y-6733984D02*
X7474944Y-6743508D01*
X7474944Y-6743508D02*
X7484467Y-6753031D01*
X7484467Y-6753031D02*
X7493991Y-6772079D01*
X7493991Y-6772079D02*
X7503515Y-6810174D01*
X7503515Y-6810174D02*
X7503515Y-6857793D01*
X7503515Y-6857793D02*
X7493991Y-6895888D01*
X7493991Y-6895888D02*
X7484467Y-6914936D01*
X7484467Y-6914936D02*
X7474944Y-6924460D01*
X7474944Y-6924460D02*
X7455896Y-6933984D01*
X7455896Y-6933984D02*
X7436848Y-6933984D01*
X7436848Y-6933984D02*
X7417801Y-6924460D01*
X7417801Y-6924460D02*
X7408277Y-6914936D01*
X7408277Y-6914936D02*
X7398753Y-6895888D01*
X7398753Y-6895888D02*
X7389229Y-6857793D01*
X7389229Y-6857793D02*
X7389229Y-6810174D01*
X7389229Y-6810174D02*
X7398753Y-6772079D01*
X7398753Y-6772079D02*
X7408277Y-6753031D01*
X7408277Y-6753031D02*
X7417801Y-6743508D01*
X7417801Y-6743508D02*
X7436848Y-6733984D01*
X7579706Y-6753031D02*
X7589229Y-6743508D01*
X7589229Y-6743508D02*
X7608277Y-6733984D01*
X7608277Y-6733984D02*
X7655896Y-6733984D01*
X7655896Y-6733984D02*
X7674944Y-6743508D01*
X7674944Y-6743508D02*
X7684467Y-6753031D01*
X7684467Y-6753031D02*
X7693991Y-6772079D01*
X7693991Y-6772079D02*
X7693991Y-6791127D01*
X7693991Y-6791127D02*
X7684467Y-6819698D01*
X7684467Y-6819698D02*
X7570182Y-6933984D01*
X7570182Y-6933984D02*
X7693991Y-6933984D01*
X7874944Y-6733984D02*
X7779706Y-6733984D01*
X7779706Y-6733984D02*
X7770182Y-6829222D01*
X7770182Y-6829222D02*
X7779706Y-6819698D01*
X7779706Y-6819698D02*
X7798753Y-6810174D01*
X7798753Y-6810174D02*
X7846372Y-6810174D01*
X7846372Y-6810174D02*
X7865420Y-6819698D01*
X7865420Y-6819698D02*
X7874944Y-6829222D01*
X7874944Y-6829222D02*
X7884467Y-6848269D01*
X7884467Y-6848269D02*
X7884467Y-6895888D01*
X7884467Y-6895888D02*
X7874944Y-6914936D01*
X7874944Y-6914936D02*
X7865420Y-6924460D01*
X7865420Y-6924460D02*
X7846372Y-6933984D01*
X7846372Y-6933984D02*
X7798753Y-6933984D01*
X7798753Y-6933984D02*
X7779706Y-6924460D01*
X7779706Y-6924460D02*
X7770182Y-6914936D01*
X8055896Y-6733984D02*
X8017801Y-6733984D01*
X8017801Y-6733984D02*
X7998753Y-6743508D01*
X7998753Y-6743508D02*
X7989229Y-6753031D01*
X7989229Y-6753031D02*
X7970182Y-6781603D01*
X7970182Y-6781603D02*
X7960658Y-6819698D01*
X7960658Y-6819698D02*
X7960658Y-6895888D01*
X7960658Y-6895888D02*
X7970182Y-6914936D01*
X7970182Y-6914936D02*
X7979706Y-6924460D01*
X7979706Y-6924460D02*
X7998753Y-6933984D01*
X7998753Y-6933984D02*
X8036848Y-6933984D01*
X8036848Y-6933984D02*
X8055896Y-6924460D01*
X8055896Y-6924460D02*
X8065420Y-6914936D01*
X8065420Y-6914936D02*
X8074944Y-6895888D01*
X8074944Y-6895888D02*
X8074944Y-6848269D01*
X8074944Y-6848269D02*
X8065420Y-6829222D01*
X8065420Y-6829222D02*
X8055896Y-6819698D01*
X8055896Y-6819698D02*
X8036848Y-6810174D01*
X8036848Y-6810174D02*
X7998753Y-6810174D01*
X7998753Y-6810174D02*
X7979706Y-6819698D01*
X7979706Y-6819698D02*
X7970182Y-6829222D01*
X7970182Y-6829222D02*
X7960658Y-6848269D01*
X8151134Y-6733984D02*
X8151134Y-6772079D01*
X8227325Y-6733984D02*
X8227325Y-6772079D01*
X8522563Y-7010174D02*
X8513039Y-7000650D01*
X8513039Y-7000650D02*
X8493991Y-6972079D01*
X8493991Y-6972079D02*
X8484468Y-6953031D01*
X8484468Y-6953031D02*
X8474944Y-6924460D01*
X8474944Y-6924460D02*
X8465420Y-6876841D01*
X8465420Y-6876841D02*
X8465420Y-6838746D01*
X8465420Y-6838746D02*
X8474944Y-6791127D01*
X8474944Y-6791127D02*
X8484468Y-6762555D01*
X8484468Y-6762555D02*
X8493991Y-6743508D01*
X8493991Y-6743508D02*
X8513039Y-6714936D01*
X8513039Y-6714936D02*
X8522563Y-6705412D01*
X8589230Y-6753031D02*
X8598753Y-6743508D01*
X8598753Y-6743508D02*
X8617801Y-6733984D01*
X8617801Y-6733984D02*
X8665420Y-6733984D01*
X8665420Y-6733984D02*
X8684468Y-6743508D01*
X8684468Y-6743508D02*
X8693991Y-6753031D01*
X8693991Y-6753031D02*
X8703515Y-6772079D01*
X8703515Y-6772079D02*
X8703515Y-6791127D01*
X8703515Y-6791127D02*
X8693991Y-6819698D01*
X8693991Y-6819698D02*
X8579706Y-6933984D01*
X8579706Y-6933984D02*
X8703515Y-6933984D01*
X8941611Y-6933984D02*
X8941611Y-6733984D01*
X9027325Y-6933984D02*
X9027325Y-6829222D01*
X9027325Y-6829222D02*
X9017801Y-6810174D01*
X9017801Y-6810174D02*
X8998753Y-6800650D01*
X8998753Y-6800650D02*
X8970182Y-6800650D01*
X8970182Y-6800650D02*
X8951134Y-6810174D01*
X8951134Y-6810174D02*
X8941611Y-6819698D01*
X9151134Y-6933984D02*
X9132087Y-6924460D01*
X9132087Y-6924460D02*
X9122563Y-6914936D01*
X9122563Y-6914936D02*
X9113039Y-6895888D01*
X9113039Y-6895888D02*
X9113039Y-6838746D01*
X9113039Y-6838746D02*
X9122563Y-6819698D01*
X9122563Y-6819698D02*
X9132087Y-6810174D01*
X9132087Y-6810174D02*
X9151134Y-6800650D01*
X9151134Y-6800650D02*
X9179706Y-6800650D01*
X9179706Y-6800650D02*
X9198753Y-6810174D01*
X9198753Y-6810174D02*
X9208277Y-6819698D01*
X9208277Y-6819698D02*
X9217801Y-6838746D01*
X9217801Y-6838746D02*
X9217801Y-6895888D01*
X9217801Y-6895888D02*
X9208277Y-6914936D01*
X9208277Y-6914936D02*
X9198753Y-6924460D01*
X9198753Y-6924460D02*
X9179706Y-6933984D01*
X9179706Y-6933984D02*
X9151134Y-6933984D01*
X9332087Y-6933984D02*
X9313039Y-6924460D01*
X9313039Y-6924460D02*
X9303515Y-6905412D01*
X9303515Y-6905412D02*
X9303515Y-6733984D01*
X9484468Y-6924460D02*
X9465420Y-6933984D01*
X9465420Y-6933984D02*
X9427325Y-6933984D01*
X9427325Y-6933984D02*
X9408277Y-6924460D01*
X9408277Y-6924460D02*
X9398753Y-6905412D01*
X9398753Y-6905412D02*
X9398753Y-6829222D01*
X9398753Y-6829222D02*
X9408277Y-6810174D01*
X9408277Y-6810174D02*
X9427325Y-6800650D01*
X9427325Y-6800650D02*
X9465420Y-6800650D01*
X9465420Y-6800650D02*
X9484468Y-6810174D01*
X9484468Y-6810174D02*
X9493992Y-6829222D01*
X9493992Y-6829222D02*
X9493992Y-6848269D01*
X9493992Y-6848269D02*
X9398753Y-6867317D01*
X9570182Y-6924460D02*
X9589230Y-6933984D01*
X9589230Y-6933984D02*
X9627325Y-6933984D01*
X9627325Y-6933984D02*
X9646373Y-6924460D01*
X9646373Y-6924460D02*
X9655896Y-6905412D01*
X9655896Y-6905412D02*
X9655896Y-6895888D01*
X9655896Y-6895888D02*
X9646373Y-6876841D01*
X9646373Y-6876841D02*
X9627325Y-6867317D01*
X9627325Y-6867317D02*
X9598753Y-6867317D01*
X9598753Y-6867317D02*
X9579706Y-6857793D01*
X9579706Y-6857793D02*
X9570182Y-6838746D01*
X9570182Y-6838746D02*
X9570182Y-6829222D01*
X9570182Y-6829222D02*
X9579706Y-6810174D01*
X9579706Y-6810174D02*
X9598753Y-6800650D01*
X9598753Y-6800650D02*
X9627325Y-6800650D01*
X9627325Y-6800650D02*
X9646373Y-6810174D01*
X9722563Y-7010174D02*
X9732087Y-7000650D01*
X9732087Y-7000650D02*
X9751134Y-6972079D01*
X9751134Y-6972079D02*
X9760658Y-6953031D01*
X9760658Y-6953031D02*
X9770182Y-6924460D01*
X9770182Y-6924460D02*
X9779706Y-6876841D01*
X9779706Y-6876841D02*
X9779706Y-6838746D01*
X9779706Y-6838746D02*
X9770182Y-6791127D01*
X9770182Y-6791127D02*
X9760658Y-6762555D01*
X9760658Y-6762555D02*
X9751134Y-6743508D01*
X9751134Y-6743508D02*
X9732087Y-6714936D01*
X9732087Y-6714936D02*
X9722563Y-6705412D01*
X10084468Y-7010174D02*
X10074944Y-7000650D01*
X10074944Y-7000650D02*
X10055896Y-6972079D01*
X10055896Y-6972079D02*
X10046373Y-6953031D01*
X10046373Y-6953031D02*
X10036849Y-6924460D01*
X10036849Y-6924460D02*
X10027325Y-6876841D01*
X10027325Y-6876841D02*
X10027325Y-6838746D01*
X10027325Y-6838746D02*
X10036849Y-6791127D01*
X10036849Y-6791127D02*
X10046373Y-6762555D01*
X10046373Y-6762555D02*
X10055896Y-6743508D01*
X10055896Y-6743508D02*
X10074944Y-6714936D01*
X10074944Y-6714936D02*
X10084468Y-6705412D01*
X10160658Y-6800650D02*
X10160658Y-6933984D01*
X10160658Y-6819698D02*
X10170182Y-6810174D01*
X10170182Y-6810174D02*
X10189230Y-6800650D01*
X10189230Y-6800650D02*
X10217801Y-6800650D01*
X10217801Y-6800650D02*
X10236849Y-6810174D01*
X10236849Y-6810174D02*
X10246373Y-6829222D01*
X10246373Y-6829222D02*
X10246373Y-6933984D01*
X10370182Y-6933984D02*
X10351134Y-6924460D01*
X10351134Y-6924460D02*
X10341611Y-6914936D01*
X10341611Y-6914936D02*
X10332087Y-6895888D01*
X10332087Y-6895888D02*
X10332087Y-6838746D01*
X10332087Y-6838746D02*
X10341611Y-6819698D01*
X10341611Y-6819698D02*
X10351134Y-6810174D01*
X10351134Y-6810174D02*
X10370182Y-6800650D01*
X10370182Y-6800650D02*
X10398754Y-6800650D01*
X10398754Y-6800650D02*
X10417801Y-6810174D01*
X10417801Y-6810174D02*
X10427325Y-6819698D01*
X10427325Y-6819698D02*
X10436849Y-6838746D01*
X10436849Y-6838746D02*
X10436849Y-6895888D01*
X10436849Y-6895888D02*
X10427325Y-6914936D01*
X10427325Y-6914936D02*
X10417801Y-6924460D01*
X10417801Y-6924460D02*
X10398754Y-6933984D01*
X10398754Y-6933984D02*
X10370182Y-6933984D01*
X10493992Y-6800650D02*
X10570182Y-6800650D01*
X10522563Y-6733984D02*
X10522563Y-6905412D01*
X10522563Y-6905412D02*
X10532087Y-6924460D01*
X10532087Y-6924460D02*
X10551134Y-6933984D01*
X10551134Y-6933984D02*
X10570182Y-6933984D01*
X10789230Y-6800650D02*
X10789230Y-7000650D01*
X10789230Y-6810174D02*
X10808277Y-6800650D01*
X10808277Y-6800650D02*
X10846373Y-6800650D01*
X10846373Y-6800650D02*
X10865420Y-6810174D01*
X10865420Y-6810174D02*
X10874944Y-6819698D01*
X10874944Y-6819698D02*
X10884468Y-6838746D01*
X10884468Y-6838746D02*
X10884468Y-6895888D01*
X10884468Y-6895888D02*
X10874944Y-6914936D01*
X10874944Y-6914936D02*
X10865420Y-6924460D01*
X10865420Y-6924460D02*
X10846373Y-6933984D01*
X10846373Y-6933984D02*
X10808277Y-6933984D01*
X10808277Y-6933984D02*
X10789230Y-6924460D01*
X10998754Y-6933984D02*
X10979706Y-6924460D01*
X10979706Y-6924460D02*
X10970182Y-6905412D01*
X10970182Y-6905412D02*
X10970182Y-6733984D01*
X11160658Y-6933984D02*
X11160658Y-6829222D01*
X11160658Y-6829222D02*
X11151135Y-6810174D01*
X11151135Y-6810174D02*
X11132087Y-6800650D01*
X11132087Y-6800650D02*
X11093992Y-6800650D01*
X11093992Y-6800650D02*
X11074944Y-6810174D01*
X11160658Y-6924460D02*
X11141611Y-6933984D01*
X11141611Y-6933984D02*
X11093992Y-6933984D01*
X11093992Y-6933984D02*
X11074944Y-6924460D01*
X11074944Y-6924460D02*
X11065420Y-6905412D01*
X11065420Y-6905412D02*
X11065420Y-6886365D01*
X11065420Y-6886365D02*
X11074944Y-6867317D01*
X11074944Y-6867317D02*
X11093992Y-6857793D01*
X11093992Y-6857793D02*
X11141611Y-6857793D01*
X11141611Y-6857793D02*
X11160658Y-6848269D01*
X11227325Y-6800650D02*
X11303515Y-6800650D01*
X11255896Y-6733984D02*
X11255896Y-6905412D01*
X11255896Y-6905412D02*
X11265420Y-6924460D01*
X11265420Y-6924460D02*
X11284468Y-6933984D01*
X11284468Y-6933984D02*
X11303515Y-6933984D01*
X11446373Y-6924460D02*
X11427325Y-6933984D01*
X11427325Y-6933984D02*
X11389230Y-6933984D01*
X11389230Y-6933984D02*
X11370182Y-6924460D01*
X11370182Y-6924460D02*
X11360658Y-6905412D01*
X11360658Y-6905412D02*
X11360658Y-6829222D01*
X11360658Y-6829222D02*
X11370182Y-6810174D01*
X11370182Y-6810174D02*
X11389230Y-6800650D01*
X11389230Y-6800650D02*
X11427325Y-6800650D01*
X11427325Y-6800650D02*
X11446373Y-6810174D01*
X11446373Y-6810174D02*
X11455896Y-6829222D01*
X11455896Y-6829222D02*
X11455896Y-6848269D01*
X11455896Y-6848269D02*
X11360658Y-6867317D01*
X11627325Y-6933984D02*
X11627325Y-6733984D01*
X11627325Y-6924460D02*
X11608277Y-6933984D01*
X11608277Y-6933984D02*
X11570182Y-6933984D01*
X11570182Y-6933984D02*
X11551134Y-6924460D01*
X11551134Y-6924460D02*
X11541611Y-6914936D01*
X11541611Y-6914936D02*
X11532087Y-6895888D01*
X11532087Y-6895888D02*
X11532087Y-6838746D01*
X11532087Y-6838746D02*
X11541611Y-6819698D01*
X11541611Y-6819698D02*
X11551134Y-6810174D01*
X11551134Y-6810174D02*
X11570182Y-6800650D01*
X11570182Y-6800650D02*
X11608277Y-6800650D01*
X11608277Y-6800650D02*
X11627325Y-6810174D01*
X11703515Y-7010174D02*
X11713039Y-7000650D01*
X11713039Y-7000650D02*
X11732087Y-6972079D01*
X11732087Y-6972079D02*
X11741611Y-6953031D01*
X11741611Y-6953031D02*
X11751134Y-6924460D01*
X11751134Y-6924460D02*
X11760658Y-6876841D01*
X11760658Y-6876841D02*
X11760658Y-6838746D01*
X11760658Y-6838746D02*
X11751134Y-6791127D01*
X11751134Y-6791127D02*
X11741611Y-6762555D01*
X11741611Y-6762555D02*
X11732087Y-6743508D01*
X11732087Y-6743508D02*
X11713039Y-6714936D01*
X11713039Y-6714936D02*
X11703515Y-6705412D01*
M02*
