%TF.GenerationSoftware,KiCad,Pcbnew,8.0.4-8.0.4-0~ubuntu22.04.1*%
%TF.CreationDate,2024-09-03T23:48:02+02:00*%
%TF.ProjectId,Powermeter,506f7765-726d-4657-9465-722e6b696361,rev?*%
%TF.SameCoordinates,Original*%
%TF.FileFunction,Drillmap*%
%TF.FilePolarity,Positive*%
%FSLAX45Y45*%
G04 Gerber Fmt 4.5, Leading zero omitted, Abs format (unit mm)*
G04 Created by KiCad (PCBNEW 8.0.4-8.0.4-0~ubuntu22.04.1) date 2024-09-03 23:48:02*
%MOMM*%
%LPD*%
G01*
G04 APERTURE LIST*
%ADD10C,0.050000*%
%ADD11C,0.200000*%
%ADD12C,0.100000*%
G04 APERTURE END LIST*
D10*
X4950000Y-4500000D02*
X8050000Y-4500000D01*
X8050000Y-6200000D01*
X4950000Y-6200000D01*
X4950000Y-4500000D01*
D11*
D12*
X4983337Y-4533337D02*
X5008763Y-4558763D01*
X5008763Y-4533337D02*
X4983337Y-4558763D01*
X4998737Y-5684252D02*
X5024163Y-5709677D01*
X5024163Y-5684252D02*
X4998737Y-5709677D01*
X5002286Y-5238719D02*
X5027712Y-5264145D01*
X5027712Y-5238719D02*
X5002286Y-5264145D01*
X5005700Y-4794098D02*
X5031126Y-4819523D01*
X5031126Y-4794098D02*
X5005700Y-4819523D01*
X5017347Y-6128436D02*
X5042773Y-6153861D01*
X5042773Y-6128436D02*
X5017347Y-6153861D01*
X5168786Y-5060264D02*
X5194212Y-5085689D01*
X5194212Y-5060264D02*
X5168786Y-5085689D01*
X5193014Y-5931690D02*
X5218439Y-5957116D01*
X5218439Y-5931690D02*
X5193014Y-5957116D01*
X5198085Y-5532735D02*
X5223511Y-5558160D01*
X5223511Y-5532735D02*
X5198085Y-5558160D01*
X5215726Y-4533337D02*
X5241151Y-4558763D01*
X5241151Y-4533337D02*
X5215726Y-4558763D01*
X5322651Y-4733205D02*
X5348076Y-4758630D01*
X5348076Y-4733205D02*
X5322651Y-4758630D01*
X5387555Y-6141237D02*
X5412981Y-6166663D01*
X5412981Y-6141237D02*
X5387555Y-6166663D01*
X5448114Y-4533337D02*
X5473539Y-4558763D01*
X5473539Y-4533337D02*
X5448114Y-4558763D01*
X5482948Y-5202836D02*
X5508374Y-5228261D01*
X5508374Y-5202836D02*
X5482948Y-5228261D01*
X5518462Y-5445881D02*
X5543887Y-5471306D01*
X5543887Y-5445881D02*
X5518462Y-5471306D01*
X5530191Y-5140824D02*
X5555616Y-5166250D01*
X5555616Y-5140824D02*
X5530191Y-5166250D01*
X5532597Y-5230574D02*
X5558023Y-5255999D01*
X5558023Y-5230574D02*
X5532597Y-5255999D01*
X5578992Y-5954544D02*
X5604417Y-5979969D01*
X5604417Y-5954544D02*
X5578992Y-5979969D01*
X5615705Y-4831266D02*
X5641130Y-4856691D01*
X5641130Y-4831266D02*
X5615705Y-4856691D01*
X5626503Y-5647290D02*
X5651928Y-5672715D01*
X5651928Y-5647290D02*
X5626503Y-5672715D01*
X5680502Y-4533337D02*
X5705927Y-4558763D01*
X5705927Y-4533337D02*
X5680502Y-4558763D01*
X5778402Y-4760562D02*
X5803827Y-4785988D01*
X5803827Y-4760562D02*
X5778402Y-4785988D01*
X5823237Y-4990244D02*
X5848663Y-5015669D01*
X5848663Y-4990244D02*
X5823237Y-5015669D01*
X5830826Y-6131948D02*
X5856251Y-6157373D01*
X5856251Y-6131948D02*
X5830826Y-6157373D01*
X5834285Y-4914534D02*
X5859711Y-4939959D01*
X5859711Y-4914534D02*
X5834285Y-4939959D01*
X5894067Y-5031078D02*
X5919493Y-5056504D01*
X5919493Y-5031078D02*
X5894067Y-5056504D01*
X5907576Y-5625837D02*
X5933001Y-5651263D01*
X5933001Y-5625837D02*
X5907576Y-5651263D01*
X5931025Y-5866990D02*
X5956451Y-5892415D01*
X5956451Y-5866990D02*
X5931025Y-5892415D01*
X5944492Y-5055735D02*
X5969917Y-5081160D01*
X5969917Y-5055735D02*
X5944492Y-5081160D01*
X6054227Y-5154358D02*
X6079653Y-5179784D01*
X6079653Y-5154358D02*
X6054227Y-5179784D01*
X6057790Y-5233472D02*
X6083216Y-5258898D01*
X6083216Y-5233472D02*
X6057790Y-5258898D01*
X6109239Y-4760821D02*
X6134665Y-4786246D01*
X6134665Y-4760821D02*
X6109239Y-4786246D01*
X6114274Y-4571350D02*
X6139699Y-4596776D01*
X6139699Y-4571350D02*
X6114274Y-4596776D01*
X6129889Y-5963737D02*
X6155315Y-5989163D01*
X6155315Y-5963737D02*
X6129889Y-5989163D01*
X6181037Y-5616978D02*
X6206462Y-5642403D01*
X6206462Y-5616978D02*
X6181037Y-5642403D01*
X6213756Y-5313880D02*
X6239182Y-5339306D01*
X6239182Y-5313880D02*
X6213756Y-5339306D01*
X6267020Y-4791232D02*
X6292446Y-4816658D01*
X6292446Y-4791232D02*
X6267020Y-4816658D01*
X6275447Y-6140075D02*
X6300873Y-6165501D01*
X6300873Y-6140075D02*
X6275447Y-6165501D01*
X6328031Y-4984452D02*
X6353457Y-5009877D01*
X6353457Y-4984452D02*
X6328031Y-5009877D01*
X6345998Y-5331832D02*
X6371423Y-5357258D01*
X6371423Y-5331832D02*
X6345998Y-5357258D01*
X6378807Y-5202375D02*
X6404232Y-5227800D01*
X6404232Y-5202375D02*
X6378807Y-5227800D01*
X6382707Y-5915350D02*
X6408132Y-5940776D01*
X6408132Y-5915350D02*
X6382707Y-5940776D01*
X6413728Y-4992376D02*
X6439153Y-5017802D01*
X6439153Y-4992376D02*
X6413728Y-5017802D01*
X6415856Y-5126306D02*
X6441282Y-5151732D01*
X6441282Y-5126306D02*
X6415856Y-5151732D01*
X6557317Y-5771641D02*
X6582742Y-5797066D01*
X6582742Y-5771641D02*
X6557317Y-5797066D01*
X6557501Y-5204740D02*
X6582926Y-5230166D01*
X6582926Y-5204740D02*
X6557501Y-5230166D01*
X6557826Y-4655176D02*
X6583251Y-4680602D01*
X6583251Y-4655176D02*
X6557826Y-4680602D01*
X6559951Y-5447117D02*
X6585377Y-5472543D01*
X6585377Y-5447117D02*
X6559951Y-5472543D01*
X6573882Y-4948640D02*
X6599307Y-4974065D01*
X6599307Y-4948640D02*
X6573882Y-4974065D01*
X6605564Y-5752347D02*
X6630990Y-5777772D01*
X6630990Y-5752347D02*
X6605564Y-5777772D01*
X6614700Y-5301437D02*
X6640125Y-5326862D01*
X6640125Y-5301437D02*
X6614700Y-5326862D01*
X6626393Y-5091996D02*
X6651818Y-5117421D01*
X6651818Y-5091996D02*
X6626393Y-5117421D01*
X6630949Y-5189826D02*
X6656374Y-5215252D01*
X6656374Y-5189826D02*
X6630949Y-5215252D01*
X6860992Y-6141237D02*
X6886418Y-6166663D01*
X6886418Y-6141237D02*
X6860992Y-6166663D01*
X6865739Y-5191293D02*
X6891164Y-5216719D01*
X6891164Y-5191293D02*
X6865739Y-5216719D01*
X6868491Y-5034756D02*
X6893917Y-5060181D01*
X6893917Y-5034756D02*
X6868491Y-5060181D01*
X6910882Y-6076931D02*
X6936307Y-6102356D01*
X6936307Y-6076931D02*
X6910882Y-6102356D01*
X6919682Y-5479938D02*
X6945107Y-5505364D01*
X6945107Y-5479938D02*
X6919682Y-5505364D01*
X6927755Y-5773667D02*
X6953180Y-5799092D01*
X6953180Y-5773667D02*
X6927755Y-5799092D01*
X6928648Y-5007264D02*
X6954073Y-5032689D01*
X6954073Y-5007264D02*
X6928648Y-5032689D01*
X6935526Y-5926042D02*
X6960951Y-5951467D01*
X6960951Y-5926042D02*
X6935526Y-5951467D01*
X6976539Y-5994210D02*
X7001964Y-6019635D01*
X7001964Y-5994210D02*
X6976539Y-6019635D01*
X6984974Y-5492900D02*
X7010399Y-5518325D01*
X7010399Y-5492900D02*
X6984974Y-5518325D01*
X7004712Y-5950339D02*
X7030138Y-5975764D01*
X7030138Y-5950339D02*
X7004712Y-5975764D01*
X7008671Y-5114634D02*
X7034097Y-5140059D01*
X7034097Y-5114634D02*
X7008671Y-5140059D01*
X7015714Y-5183189D02*
X7041139Y-5208614D01*
X7041139Y-5183189D02*
X7015714Y-5208614D01*
X7019304Y-5403104D02*
X7044729Y-5428529D01*
X7044729Y-5403104D02*
X7019304Y-5428529D01*
X7019902Y-4799880D02*
X7045327Y-4825305D01*
X7045327Y-4799880D02*
X7019902Y-4825305D01*
X7024218Y-4604009D02*
X7049644Y-4629434D01*
X7049644Y-4604009D02*
X7024218Y-4629434D01*
X7101709Y-5371229D02*
X7127135Y-5396654D01*
X7127135Y-5371229D02*
X7101709Y-5396654D01*
X7126814Y-5132313D02*
X7152239Y-5157738D01*
X7152239Y-5132313D02*
X7126814Y-5157738D01*
X7129963Y-5996390D02*
X7155388Y-6021816D01*
X7155388Y-5996390D02*
X7129963Y-6021816D01*
X7232682Y-4700880D02*
X7258107Y-4726306D01*
X7258107Y-4700880D02*
X7232682Y-4726306D01*
X7238448Y-4798191D02*
X7263873Y-4823616D01*
X7263873Y-4798191D02*
X7238448Y-4823616D01*
X7243756Y-6141237D02*
X7269182Y-6166663D01*
X7269182Y-6141237D02*
X7243756Y-6166663D01*
X7289673Y-5053946D02*
X7315098Y-5079372D01*
X7315098Y-5053946D02*
X7289673Y-5079372D01*
X7334446Y-5003742D02*
X7359871Y-5029167D01*
X7359871Y-5003742D02*
X7334446Y-5029167D01*
X7386521Y-4995193D02*
X7411946Y-5020619D01*
X7411946Y-4995193D02*
X7386521Y-5020619D01*
X7390025Y-4663136D02*
X7415451Y-4688561D01*
X7415451Y-4663136D02*
X7390025Y-4688561D01*
X7392972Y-5169466D02*
X7418398Y-5194891D01*
X7418398Y-5169466D02*
X7392972Y-5194891D01*
X7401881Y-5308550D02*
X7427306Y-5333975D01*
X7427306Y-5308550D02*
X7401881Y-5333975D01*
X7438051Y-5422587D02*
X7463476Y-5448012D01*
X7463476Y-5422587D02*
X7438051Y-5448012D01*
X7441524Y-4795113D02*
X7466949Y-4820538D01*
X7466949Y-4795113D02*
X7441524Y-4820538D01*
X7459996Y-5086171D02*
X7485421Y-5111596D01*
X7485421Y-5086171D02*
X7459996Y-5111596D01*
X7498815Y-5952564D02*
X7524240Y-5977989D01*
X7524240Y-5952564D02*
X7498815Y-5977989D01*
X7525083Y-5729251D02*
X7550508Y-5754676D01*
X7550508Y-5729251D02*
X7525083Y-5754676D01*
X7535666Y-5536858D02*
X7561092Y-5562284D01*
X7561092Y-5536858D02*
X7535666Y-5562284D01*
X7548976Y-5191539D02*
X7574401Y-5216964D01*
X7574401Y-5191539D02*
X7548976Y-5216964D01*
X7604939Y-5759616D02*
X7630364Y-5785041D01*
X7630364Y-5759616D02*
X7604939Y-5785041D01*
X7635841Y-4807294D02*
X7661266Y-4832719D01*
X7661266Y-4807294D02*
X7635841Y-4832719D01*
X7686084Y-4702455D02*
X7711509Y-4727880D01*
X7711509Y-4702455D02*
X7686084Y-4727880D01*
X7758145Y-4956956D02*
X7783570Y-4982381D01*
X7783570Y-4956956D02*
X7758145Y-4982381D01*
X7758849Y-5118737D02*
X7784274Y-5144163D01*
X7784274Y-5118737D02*
X7758849Y-5144163D01*
X7758849Y-6141237D02*
X7784274Y-6166663D01*
X7784274Y-6141237D02*
X7758849Y-6166663D01*
X7767441Y-5634913D02*
X7792866Y-5660338D01*
X7792866Y-5634913D02*
X7767441Y-5660338D01*
X7770409Y-5686817D02*
X7795835Y-5712243D01*
X7795835Y-5686817D02*
X7770409Y-5712243D01*
X7991237Y-4533337D02*
X8016663Y-4558763D01*
X8016663Y-4533337D02*
X7991237Y-4558763D01*
X7991237Y-5118737D02*
X8016663Y-5144163D01*
X8016663Y-5118737D02*
X7991237Y-5144163D01*
X7991237Y-5688737D02*
X8016663Y-5714163D01*
X8016663Y-5688737D02*
X7991237Y-5714163D01*
X7991237Y-6141237D02*
X8016663Y-6166663D01*
X8016663Y-6141237D02*
X7991237Y-6166663D01*
X5298000Y-5410000D02*
G75*
G02*
X5238000Y-5410000I-30000J0D01*
G01*
X5238000Y-5410000D02*
G75*
G02*
X5298000Y-5410000I30000J0D01*
G01*
X5238000Y-5355000D02*
X5238000Y-5465000D01*
X5298000Y-5465000D02*
G75*
G02*
X5238000Y-5465000I-30000J0D01*
G01*
X5298000Y-5465000D02*
X5298000Y-5355000D01*
X5298000Y-5355000D02*
G75*
G03*
X5238000Y-5355000I-30000J0D01*
G01*
X5298000Y-5828000D02*
G75*
G02*
X5238000Y-5828000I-30000J0D01*
G01*
X5238000Y-5828000D02*
G75*
G02*
X5298000Y-5828000I30000J0D01*
G01*
X5238000Y-5788000D02*
X5238000Y-5868000D01*
X5298000Y-5868000D02*
G75*
G02*
X5238000Y-5868000I-30000J0D01*
G01*
X5298000Y-5868000D02*
X5298000Y-5788000D01*
X5298000Y-5788000D02*
G75*
G03*
X5238000Y-5788000I-30000J0D01*
G01*
X6162000Y-5410000D02*
G75*
G02*
X6102000Y-5410000I-30000J0D01*
G01*
X6102000Y-5410000D02*
G75*
G02*
X6162000Y-5410000I30000J0D01*
G01*
X6102000Y-5355000D02*
X6102000Y-5465000D01*
X6162000Y-5465000D02*
G75*
G02*
X6102000Y-5465000I-30000J0D01*
G01*
X6162000Y-5465000D02*
X6162000Y-5355000D01*
X6162000Y-5355000D02*
G75*
G03*
X6102000Y-5355000I-30000J0D01*
G01*
X6162000Y-5828000D02*
G75*
G02*
X6102000Y-5828000I-30000J0D01*
G01*
X6102000Y-5828000D02*
G75*
G02*
X6162000Y-5828000I30000J0D01*
G01*
X6102000Y-5788000D02*
X6102000Y-5868000D01*
X6162000Y-5868000D02*
G75*
G02*
X6102000Y-5868000I-30000J0D01*
G01*
X6162000Y-5868000D02*
X6162000Y-5788000D01*
X6162000Y-5788000D02*
G75*
G03*
X6102000Y-5788000I-30000J0D01*
G01*
D11*
X5208277Y-6513984D02*
X5208277Y-6313984D01*
X5208277Y-6313984D02*
X5255896Y-6313984D01*
X5255896Y-6313984D02*
X5284467Y-6323508D01*
X5284467Y-6323508D02*
X5303515Y-6342555D01*
X5303515Y-6342555D02*
X5313039Y-6361603D01*
X5313039Y-6361603D02*
X5322563Y-6399698D01*
X5322563Y-6399698D02*
X5322563Y-6428269D01*
X5322563Y-6428269D02*
X5313039Y-6466365D01*
X5313039Y-6466365D02*
X5303515Y-6485412D01*
X5303515Y-6485412D02*
X5284467Y-6504460D01*
X5284467Y-6504460D02*
X5255896Y-6513984D01*
X5255896Y-6513984D02*
X5208277Y-6513984D01*
X5408277Y-6513984D02*
X5408277Y-6380650D01*
X5408277Y-6418746D02*
X5417801Y-6399698D01*
X5417801Y-6399698D02*
X5427324Y-6390174D01*
X5427324Y-6390174D02*
X5446372Y-6380650D01*
X5446372Y-6380650D02*
X5465420Y-6380650D01*
X5532086Y-6513984D02*
X5532086Y-6380650D01*
X5532086Y-6313984D02*
X5522563Y-6323508D01*
X5522563Y-6323508D02*
X5532086Y-6333031D01*
X5532086Y-6333031D02*
X5541610Y-6323508D01*
X5541610Y-6323508D02*
X5532086Y-6313984D01*
X5532086Y-6313984D02*
X5532086Y-6333031D01*
X5655896Y-6513984D02*
X5636848Y-6504460D01*
X5636848Y-6504460D02*
X5627324Y-6485412D01*
X5627324Y-6485412D02*
X5627324Y-6313984D01*
X5760658Y-6513984D02*
X5741610Y-6504460D01*
X5741610Y-6504460D02*
X5732086Y-6485412D01*
X5732086Y-6485412D02*
X5732086Y-6313984D01*
X5989229Y-6513984D02*
X5989229Y-6313984D01*
X5989229Y-6313984D02*
X6055896Y-6456841D01*
X6055896Y-6456841D02*
X6122562Y-6313984D01*
X6122562Y-6313984D02*
X6122562Y-6513984D01*
X6303515Y-6513984D02*
X6303515Y-6409222D01*
X6303515Y-6409222D02*
X6293991Y-6390174D01*
X6293991Y-6390174D02*
X6274943Y-6380650D01*
X6274943Y-6380650D02*
X6236848Y-6380650D01*
X6236848Y-6380650D02*
X6217801Y-6390174D01*
X6303515Y-6504460D02*
X6284467Y-6513984D01*
X6284467Y-6513984D02*
X6236848Y-6513984D01*
X6236848Y-6513984D02*
X6217801Y-6504460D01*
X6217801Y-6504460D02*
X6208277Y-6485412D01*
X6208277Y-6485412D02*
X6208277Y-6466365D01*
X6208277Y-6466365D02*
X6217801Y-6447317D01*
X6217801Y-6447317D02*
X6236848Y-6437793D01*
X6236848Y-6437793D02*
X6284467Y-6437793D01*
X6284467Y-6437793D02*
X6303515Y-6428269D01*
X6398753Y-6380650D02*
X6398753Y-6580650D01*
X6398753Y-6390174D02*
X6417801Y-6380650D01*
X6417801Y-6380650D02*
X6455896Y-6380650D01*
X6455896Y-6380650D02*
X6474943Y-6390174D01*
X6474943Y-6390174D02*
X6484467Y-6399698D01*
X6484467Y-6399698D02*
X6493991Y-6418746D01*
X6493991Y-6418746D02*
X6493991Y-6475888D01*
X6493991Y-6475888D02*
X6484467Y-6494936D01*
X6484467Y-6494936D02*
X6474943Y-6504460D01*
X6474943Y-6504460D02*
X6455896Y-6513984D01*
X6455896Y-6513984D02*
X6417801Y-6513984D01*
X6417801Y-6513984D02*
X6398753Y-6504460D01*
X6579705Y-6494936D02*
X6589229Y-6504460D01*
X6589229Y-6504460D02*
X6579705Y-6513984D01*
X6579705Y-6513984D02*
X6570182Y-6504460D01*
X6570182Y-6504460D02*
X6579705Y-6494936D01*
X6579705Y-6494936D02*
X6579705Y-6513984D01*
X6579705Y-6390174D02*
X6589229Y-6399698D01*
X6589229Y-6399698D02*
X6579705Y-6409222D01*
X6579705Y-6409222D02*
X6570182Y-6399698D01*
X6570182Y-6399698D02*
X6579705Y-6390174D01*
X6579705Y-6390174D02*
X6579705Y-6409222D01*
D12*
X4922075Y-6829787D02*
X4947500Y-6855213D01*
X4947500Y-6829787D02*
X4922075Y-6855213D01*
D11*
X5246372Y-6733984D02*
X5265420Y-6733984D01*
X5265420Y-6733984D02*
X5284467Y-6743508D01*
X5284467Y-6743508D02*
X5293991Y-6753031D01*
X5293991Y-6753031D02*
X5303515Y-6772079D01*
X5303515Y-6772079D02*
X5313039Y-6810174D01*
X5313039Y-6810174D02*
X5313039Y-6857793D01*
X5313039Y-6857793D02*
X5303515Y-6895888D01*
X5303515Y-6895888D02*
X5293991Y-6914936D01*
X5293991Y-6914936D02*
X5284467Y-6924460D01*
X5284467Y-6924460D02*
X5265420Y-6933984D01*
X5265420Y-6933984D02*
X5246372Y-6933984D01*
X5246372Y-6933984D02*
X5227324Y-6924460D01*
X5227324Y-6924460D02*
X5217801Y-6914936D01*
X5217801Y-6914936D02*
X5208277Y-6895888D01*
X5208277Y-6895888D02*
X5198753Y-6857793D01*
X5198753Y-6857793D02*
X5198753Y-6810174D01*
X5198753Y-6810174D02*
X5208277Y-6772079D01*
X5208277Y-6772079D02*
X5217801Y-6753031D01*
X5217801Y-6753031D02*
X5227324Y-6743508D01*
X5227324Y-6743508D02*
X5246372Y-6733984D01*
X5398753Y-6914936D02*
X5408277Y-6924460D01*
X5408277Y-6924460D02*
X5398753Y-6933984D01*
X5398753Y-6933984D02*
X5389229Y-6924460D01*
X5389229Y-6924460D02*
X5398753Y-6914936D01*
X5398753Y-6914936D02*
X5398753Y-6933984D01*
X5484467Y-6753031D02*
X5493991Y-6743508D01*
X5493991Y-6743508D02*
X5513039Y-6733984D01*
X5513039Y-6733984D02*
X5560658Y-6733984D01*
X5560658Y-6733984D02*
X5579705Y-6743508D01*
X5579705Y-6743508D02*
X5589229Y-6753031D01*
X5589229Y-6753031D02*
X5598753Y-6772079D01*
X5598753Y-6772079D02*
X5598753Y-6791127D01*
X5598753Y-6791127D02*
X5589229Y-6819698D01*
X5589229Y-6819698D02*
X5474944Y-6933984D01*
X5474944Y-6933984D02*
X5598753Y-6933984D01*
X5779705Y-6733984D02*
X5684467Y-6733984D01*
X5684467Y-6733984D02*
X5674943Y-6829222D01*
X5674943Y-6829222D02*
X5684467Y-6819698D01*
X5684467Y-6819698D02*
X5703515Y-6810174D01*
X5703515Y-6810174D02*
X5751134Y-6810174D01*
X5751134Y-6810174D02*
X5770182Y-6819698D01*
X5770182Y-6819698D02*
X5779705Y-6829222D01*
X5779705Y-6829222D02*
X5789229Y-6848269D01*
X5789229Y-6848269D02*
X5789229Y-6895888D01*
X5789229Y-6895888D02*
X5779705Y-6914936D01*
X5779705Y-6914936D02*
X5770182Y-6924460D01*
X5770182Y-6924460D02*
X5751134Y-6933984D01*
X5751134Y-6933984D02*
X5703515Y-6933984D01*
X5703515Y-6933984D02*
X5684467Y-6924460D01*
X5684467Y-6924460D02*
X5674943Y-6914936D01*
X5960658Y-6800650D02*
X5960658Y-6933984D01*
X5913039Y-6724460D02*
X5865420Y-6867317D01*
X5865420Y-6867317D02*
X5989229Y-6867317D01*
X6065420Y-6933984D02*
X6065420Y-6800650D01*
X6065420Y-6819698D02*
X6074943Y-6810174D01*
X6074943Y-6810174D02*
X6093991Y-6800650D01*
X6093991Y-6800650D02*
X6122563Y-6800650D01*
X6122563Y-6800650D02*
X6141610Y-6810174D01*
X6141610Y-6810174D02*
X6151134Y-6829222D01*
X6151134Y-6829222D02*
X6151134Y-6933984D01*
X6151134Y-6829222D02*
X6160658Y-6810174D01*
X6160658Y-6810174D02*
X6179705Y-6800650D01*
X6179705Y-6800650D02*
X6208277Y-6800650D01*
X6208277Y-6800650D02*
X6227324Y-6810174D01*
X6227324Y-6810174D02*
X6236848Y-6829222D01*
X6236848Y-6829222D02*
X6236848Y-6933984D01*
X6332086Y-6933984D02*
X6332086Y-6800650D01*
X6332086Y-6819698D02*
X6341610Y-6810174D01*
X6341610Y-6810174D02*
X6360658Y-6800650D01*
X6360658Y-6800650D02*
X6389229Y-6800650D01*
X6389229Y-6800650D02*
X6408277Y-6810174D01*
X6408277Y-6810174D02*
X6417801Y-6829222D01*
X6417801Y-6829222D02*
X6417801Y-6933984D01*
X6417801Y-6829222D02*
X6427324Y-6810174D01*
X6427324Y-6810174D02*
X6446372Y-6800650D01*
X6446372Y-6800650D02*
X6474943Y-6800650D01*
X6474943Y-6800650D02*
X6493991Y-6810174D01*
X6493991Y-6810174D02*
X6503515Y-6829222D01*
X6503515Y-6829222D02*
X6503515Y-6933984D01*
X6893991Y-6724460D02*
X6722563Y-6981603D01*
X7151134Y-6733984D02*
X7170182Y-6733984D01*
X7170182Y-6733984D02*
X7189229Y-6743508D01*
X7189229Y-6743508D02*
X7198753Y-6753031D01*
X7198753Y-6753031D02*
X7208277Y-6772079D01*
X7208277Y-6772079D02*
X7217801Y-6810174D01*
X7217801Y-6810174D02*
X7217801Y-6857793D01*
X7217801Y-6857793D02*
X7208277Y-6895888D01*
X7208277Y-6895888D02*
X7198753Y-6914936D01*
X7198753Y-6914936D02*
X7189229Y-6924460D01*
X7189229Y-6924460D02*
X7170182Y-6933984D01*
X7170182Y-6933984D02*
X7151134Y-6933984D01*
X7151134Y-6933984D02*
X7132086Y-6924460D01*
X7132086Y-6924460D02*
X7122563Y-6914936D01*
X7122563Y-6914936D02*
X7113039Y-6895888D01*
X7113039Y-6895888D02*
X7103515Y-6857793D01*
X7103515Y-6857793D02*
X7103515Y-6810174D01*
X7103515Y-6810174D02*
X7113039Y-6772079D01*
X7113039Y-6772079D02*
X7122563Y-6753031D01*
X7122563Y-6753031D02*
X7132086Y-6743508D01*
X7132086Y-6743508D02*
X7151134Y-6733984D01*
X7303515Y-6914936D02*
X7313039Y-6924460D01*
X7313039Y-6924460D02*
X7303515Y-6933984D01*
X7303515Y-6933984D02*
X7293991Y-6924460D01*
X7293991Y-6924460D02*
X7303515Y-6914936D01*
X7303515Y-6914936D02*
X7303515Y-6933984D01*
X7436848Y-6733984D02*
X7455896Y-6733984D01*
X7455896Y-6733984D02*
X7474944Y-6743508D01*
X7474944Y-6743508D02*
X7484467Y-6753031D01*
X7484467Y-6753031D02*
X7493991Y-6772079D01*
X7493991Y-6772079D02*
X7503515Y-6810174D01*
X7503515Y-6810174D02*
X7503515Y-6857793D01*
X7503515Y-6857793D02*
X7493991Y-6895888D01*
X7493991Y-6895888D02*
X7484467Y-6914936D01*
X7484467Y-6914936D02*
X7474944Y-6924460D01*
X7474944Y-6924460D02*
X7455896Y-6933984D01*
X7455896Y-6933984D02*
X7436848Y-6933984D01*
X7436848Y-6933984D02*
X7417801Y-6924460D01*
X7417801Y-6924460D02*
X7408277Y-6914936D01*
X7408277Y-6914936D02*
X7398753Y-6895888D01*
X7398753Y-6895888D02*
X7389229Y-6857793D01*
X7389229Y-6857793D02*
X7389229Y-6810174D01*
X7389229Y-6810174D02*
X7398753Y-6772079D01*
X7398753Y-6772079D02*
X7408277Y-6753031D01*
X7408277Y-6753031D02*
X7417801Y-6743508D01*
X7417801Y-6743508D02*
X7436848Y-6733984D01*
X7693991Y-6933984D02*
X7579706Y-6933984D01*
X7636848Y-6933984D02*
X7636848Y-6733984D01*
X7636848Y-6733984D02*
X7617801Y-6762555D01*
X7617801Y-6762555D02*
X7598753Y-6781603D01*
X7598753Y-6781603D02*
X7579706Y-6791127D01*
X7817801Y-6733984D02*
X7836848Y-6733984D01*
X7836848Y-6733984D02*
X7855896Y-6743508D01*
X7855896Y-6743508D02*
X7865420Y-6753031D01*
X7865420Y-6753031D02*
X7874944Y-6772079D01*
X7874944Y-6772079D02*
X7884467Y-6810174D01*
X7884467Y-6810174D02*
X7884467Y-6857793D01*
X7884467Y-6857793D02*
X7874944Y-6895888D01*
X7874944Y-6895888D02*
X7865420Y-6914936D01*
X7865420Y-6914936D02*
X7855896Y-6924460D01*
X7855896Y-6924460D02*
X7836848Y-6933984D01*
X7836848Y-6933984D02*
X7817801Y-6933984D01*
X7817801Y-6933984D02*
X7798753Y-6924460D01*
X7798753Y-6924460D02*
X7789229Y-6914936D01*
X7789229Y-6914936D02*
X7779706Y-6895888D01*
X7779706Y-6895888D02*
X7770182Y-6857793D01*
X7770182Y-6857793D02*
X7770182Y-6810174D01*
X7770182Y-6810174D02*
X7779706Y-6772079D01*
X7779706Y-6772079D02*
X7789229Y-6753031D01*
X7789229Y-6753031D02*
X7798753Y-6743508D01*
X7798753Y-6743508D02*
X7817801Y-6733984D01*
X8008277Y-6733984D02*
X8027325Y-6733984D01*
X8027325Y-6733984D02*
X8046372Y-6743508D01*
X8046372Y-6743508D02*
X8055896Y-6753031D01*
X8055896Y-6753031D02*
X8065420Y-6772079D01*
X8065420Y-6772079D02*
X8074944Y-6810174D01*
X8074944Y-6810174D02*
X8074944Y-6857793D01*
X8074944Y-6857793D02*
X8065420Y-6895888D01*
X8065420Y-6895888D02*
X8055896Y-6914936D01*
X8055896Y-6914936D02*
X8046372Y-6924460D01*
X8046372Y-6924460D02*
X8027325Y-6933984D01*
X8027325Y-6933984D02*
X8008277Y-6933984D01*
X8008277Y-6933984D02*
X7989229Y-6924460D01*
X7989229Y-6924460D02*
X7979706Y-6914936D01*
X7979706Y-6914936D02*
X7970182Y-6895888D01*
X7970182Y-6895888D02*
X7960658Y-6857793D01*
X7960658Y-6857793D02*
X7960658Y-6810174D01*
X7960658Y-6810174D02*
X7970182Y-6772079D01*
X7970182Y-6772079D02*
X7979706Y-6753031D01*
X7979706Y-6753031D02*
X7989229Y-6743508D01*
X7989229Y-6743508D02*
X8008277Y-6733984D01*
X8151134Y-6733984D02*
X8151134Y-6772079D01*
X8227325Y-6733984D02*
X8227325Y-6772079D01*
X8522563Y-7010174D02*
X8513039Y-7000650D01*
X8513039Y-7000650D02*
X8493991Y-6972079D01*
X8493991Y-6972079D02*
X8484468Y-6953031D01*
X8484468Y-6953031D02*
X8474944Y-6924460D01*
X8474944Y-6924460D02*
X8465420Y-6876841D01*
X8465420Y-6876841D02*
X8465420Y-6838746D01*
X8465420Y-6838746D02*
X8474944Y-6791127D01*
X8474944Y-6791127D02*
X8484468Y-6762555D01*
X8484468Y-6762555D02*
X8493991Y-6743508D01*
X8493991Y-6743508D02*
X8513039Y-6714936D01*
X8513039Y-6714936D02*
X8522563Y-6705412D01*
X8608277Y-6933984D02*
X8646372Y-6933984D01*
X8646372Y-6933984D02*
X8665420Y-6924460D01*
X8665420Y-6924460D02*
X8674944Y-6914936D01*
X8674944Y-6914936D02*
X8693991Y-6886365D01*
X8693991Y-6886365D02*
X8703515Y-6848269D01*
X8703515Y-6848269D02*
X8703515Y-6772079D01*
X8703515Y-6772079D02*
X8693991Y-6753031D01*
X8693991Y-6753031D02*
X8684468Y-6743508D01*
X8684468Y-6743508D02*
X8665420Y-6733984D01*
X8665420Y-6733984D02*
X8627325Y-6733984D01*
X8627325Y-6733984D02*
X8608277Y-6743508D01*
X8608277Y-6743508D02*
X8598753Y-6753031D01*
X8598753Y-6753031D02*
X8589230Y-6772079D01*
X8589230Y-6772079D02*
X8589230Y-6819698D01*
X8589230Y-6819698D02*
X8598753Y-6838746D01*
X8598753Y-6838746D02*
X8608277Y-6848269D01*
X8608277Y-6848269D02*
X8627325Y-6857793D01*
X8627325Y-6857793D02*
X8665420Y-6857793D01*
X8665420Y-6857793D02*
X8684468Y-6848269D01*
X8684468Y-6848269D02*
X8693991Y-6838746D01*
X8693991Y-6838746D02*
X8703515Y-6819698D01*
X8798753Y-6933984D02*
X8836849Y-6933984D01*
X8836849Y-6933984D02*
X8855896Y-6924460D01*
X8855896Y-6924460D02*
X8865420Y-6914936D01*
X8865420Y-6914936D02*
X8884468Y-6886365D01*
X8884468Y-6886365D02*
X8893991Y-6848269D01*
X8893991Y-6848269D02*
X8893991Y-6772079D01*
X8893991Y-6772079D02*
X8884468Y-6753031D01*
X8884468Y-6753031D02*
X8874944Y-6743508D01*
X8874944Y-6743508D02*
X8855896Y-6733984D01*
X8855896Y-6733984D02*
X8817801Y-6733984D01*
X8817801Y-6733984D02*
X8798753Y-6743508D01*
X8798753Y-6743508D02*
X8789230Y-6753031D01*
X8789230Y-6753031D02*
X8779706Y-6772079D01*
X8779706Y-6772079D02*
X8779706Y-6819698D01*
X8779706Y-6819698D02*
X8789230Y-6838746D01*
X8789230Y-6838746D02*
X8798753Y-6848269D01*
X8798753Y-6848269D02*
X8817801Y-6857793D01*
X8817801Y-6857793D02*
X8855896Y-6857793D01*
X8855896Y-6857793D02*
X8874944Y-6848269D01*
X8874944Y-6848269D02*
X8884468Y-6838746D01*
X8884468Y-6838746D02*
X8893991Y-6819698D01*
X9132087Y-6933984D02*
X9132087Y-6733984D01*
X9217801Y-6933984D02*
X9217801Y-6829222D01*
X9217801Y-6829222D02*
X9208277Y-6810174D01*
X9208277Y-6810174D02*
X9189230Y-6800650D01*
X9189230Y-6800650D02*
X9160658Y-6800650D01*
X9160658Y-6800650D02*
X9141611Y-6810174D01*
X9141611Y-6810174D02*
X9132087Y-6819698D01*
X9341611Y-6933984D02*
X9322563Y-6924460D01*
X9322563Y-6924460D02*
X9313039Y-6914936D01*
X9313039Y-6914936D02*
X9303515Y-6895888D01*
X9303515Y-6895888D02*
X9303515Y-6838746D01*
X9303515Y-6838746D02*
X9313039Y-6819698D01*
X9313039Y-6819698D02*
X9322563Y-6810174D01*
X9322563Y-6810174D02*
X9341611Y-6800650D01*
X9341611Y-6800650D02*
X9370182Y-6800650D01*
X9370182Y-6800650D02*
X9389230Y-6810174D01*
X9389230Y-6810174D02*
X9398753Y-6819698D01*
X9398753Y-6819698D02*
X9408277Y-6838746D01*
X9408277Y-6838746D02*
X9408277Y-6895888D01*
X9408277Y-6895888D02*
X9398753Y-6914936D01*
X9398753Y-6914936D02*
X9389230Y-6924460D01*
X9389230Y-6924460D02*
X9370182Y-6933984D01*
X9370182Y-6933984D02*
X9341611Y-6933984D01*
X9522563Y-6933984D02*
X9503515Y-6924460D01*
X9503515Y-6924460D02*
X9493992Y-6905412D01*
X9493992Y-6905412D02*
X9493992Y-6733984D01*
X9674944Y-6924460D02*
X9655896Y-6933984D01*
X9655896Y-6933984D02*
X9617801Y-6933984D01*
X9617801Y-6933984D02*
X9598753Y-6924460D01*
X9598753Y-6924460D02*
X9589230Y-6905412D01*
X9589230Y-6905412D02*
X9589230Y-6829222D01*
X9589230Y-6829222D02*
X9598753Y-6810174D01*
X9598753Y-6810174D02*
X9617801Y-6800650D01*
X9617801Y-6800650D02*
X9655896Y-6800650D01*
X9655896Y-6800650D02*
X9674944Y-6810174D01*
X9674944Y-6810174D02*
X9684468Y-6829222D01*
X9684468Y-6829222D02*
X9684468Y-6848269D01*
X9684468Y-6848269D02*
X9589230Y-6867317D01*
X9760658Y-6924460D02*
X9779706Y-6933984D01*
X9779706Y-6933984D02*
X9817801Y-6933984D01*
X9817801Y-6933984D02*
X9836849Y-6924460D01*
X9836849Y-6924460D02*
X9846373Y-6905412D01*
X9846373Y-6905412D02*
X9846373Y-6895888D01*
X9846373Y-6895888D02*
X9836849Y-6876841D01*
X9836849Y-6876841D02*
X9817801Y-6867317D01*
X9817801Y-6867317D02*
X9789230Y-6867317D01*
X9789230Y-6867317D02*
X9770182Y-6857793D01*
X9770182Y-6857793D02*
X9760658Y-6838746D01*
X9760658Y-6838746D02*
X9760658Y-6829222D01*
X9760658Y-6829222D02*
X9770182Y-6810174D01*
X9770182Y-6810174D02*
X9789230Y-6800650D01*
X9789230Y-6800650D02*
X9817801Y-6800650D01*
X9817801Y-6800650D02*
X9836849Y-6810174D01*
X9913039Y-7010174D02*
X9922563Y-7000650D01*
X9922563Y-7000650D02*
X9941611Y-6972079D01*
X9941611Y-6972079D02*
X9951134Y-6953031D01*
X9951134Y-6953031D02*
X9960658Y-6924460D01*
X9960658Y-6924460D02*
X9970182Y-6876841D01*
X9970182Y-6876841D02*
X9970182Y-6838746D01*
X9970182Y-6838746D02*
X9960658Y-6791127D01*
X9960658Y-6791127D02*
X9951134Y-6762555D01*
X9951134Y-6762555D02*
X9941611Y-6743508D01*
X9941611Y-6743508D02*
X9922563Y-6714936D01*
X9922563Y-6714936D02*
X9913039Y-6705412D01*
D12*
X4947500Y-7106500D02*
G75*
G02*
X4887500Y-7106500I-30000J0D01*
G01*
X4887500Y-7106500D02*
G75*
G02*
X4947500Y-7106500I30000J0D01*
G01*
D11*
X5246372Y-6997984D02*
X5265420Y-6997984D01*
X5265420Y-6997984D02*
X5284467Y-7007508D01*
X5284467Y-7007508D02*
X5293991Y-7017031D01*
X5293991Y-7017031D02*
X5303515Y-7036079D01*
X5303515Y-7036079D02*
X5313039Y-7074174D01*
X5313039Y-7074174D02*
X5313039Y-7121793D01*
X5313039Y-7121793D02*
X5303515Y-7159888D01*
X5303515Y-7159888D02*
X5293991Y-7178936D01*
X5293991Y-7178936D02*
X5284467Y-7188460D01*
X5284467Y-7188460D02*
X5265420Y-7197984D01*
X5265420Y-7197984D02*
X5246372Y-7197984D01*
X5246372Y-7197984D02*
X5227324Y-7188460D01*
X5227324Y-7188460D02*
X5217801Y-7178936D01*
X5217801Y-7178936D02*
X5208277Y-7159888D01*
X5208277Y-7159888D02*
X5198753Y-7121793D01*
X5198753Y-7121793D02*
X5198753Y-7074174D01*
X5198753Y-7074174D02*
X5208277Y-7036079D01*
X5208277Y-7036079D02*
X5217801Y-7017031D01*
X5217801Y-7017031D02*
X5227324Y-7007508D01*
X5227324Y-7007508D02*
X5246372Y-6997984D01*
X5398753Y-7178936D02*
X5408277Y-7188460D01*
X5408277Y-7188460D02*
X5398753Y-7197984D01*
X5398753Y-7197984D02*
X5389229Y-7188460D01*
X5389229Y-7188460D02*
X5398753Y-7178936D01*
X5398753Y-7178936D02*
X5398753Y-7197984D01*
X5579705Y-6997984D02*
X5541610Y-6997984D01*
X5541610Y-6997984D02*
X5522563Y-7007508D01*
X5522563Y-7007508D02*
X5513039Y-7017031D01*
X5513039Y-7017031D02*
X5493991Y-7045603D01*
X5493991Y-7045603D02*
X5484467Y-7083698D01*
X5484467Y-7083698D02*
X5484467Y-7159888D01*
X5484467Y-7159888D02*
X5493991Y-7178936D01*
X5493991Y-7178936D02*
X5503515Y-7188460D01*
X5503515Y-7188460D02*
X5522563Y-7197984D01*
X5522563Y-7197984D02*
X5560658Y-7197984D01*
X5560658Y-7197984D02*
X5579705Y-7188460D01*
X5579705Y-7188460D02*
X5589229Y-7178936D01*
X5589229Y-7178936D02*
X5598753Y-7159888D01*
X5598753Y-7159888D02*
X5598753Y-7112269D01*
X5598753Y-7112269D02*
X5589229Y-7093222D01*
X5589229Y-7093222D02*
X5579705Y-7083698D01*
X5579705Y-7083698D02*
X5560658Y-7074174D01*
X5560658Y-7074174D02*
X5522563Y-7074174D01*
X5522563Y-7074174D02*
X5503515Y-7083698D01*
X5503515Y-7083698D02*
X5493991Y-7093222D01*
X5493991Y-7093222D02*
X5484467Y-7112269D01*
X5722562Y-6997984D02*
X5741610Y-6997984D01*
X5741610Y-6997984D02*
X5760658Y-7007508D01*
X5760658Y-7007508D02*
X5770182Y-7017031D01*
X5770182Y-7017031D02*
X5779705Y-7036079D01*
X5779705Y-7036079D02*
X5789229Y-7074174D01*
X5789229Y-7074174D02*
X5789229Y-7121793D01*
X5789229Y-7121793D02*
X5779705Y-7159888D01*
X5779705Y-7159888D02*
X5770182Y-7178936D01*
X5770182Y-7178936D02*
X5760658Y-7188460D01*
X5760658Y-7188460D02*
X5741610Y-7197984D01*
X5741610Y-7197984D02*
X5722562Y-7197984D01*
X5722562Y-7197984D02*
X5703515Y-7188460D01*
X5703515Y-7188460D02*
X5693991Y-7178936D01*
X5693991Y-7178936D02*
X5684467Y-7159888D01*
X5684467Y-7159888D02*
X5674943Y-7121793D01*
X5674943Y-7121793D02*
X5674943Y-7074174D01*
X5674943Y-7074174D02*
X5684467Y-7036079D01*
X5684467Y-7036079D02*
X5693991Y-7017031D01*
X5693991Y-7017031D02*
X5703515Y-7007508D01*
X5703515Y-7007508D02*
X5722562Y-6997984D01*
X5913039Y-6997984D02*
X5932086Y-6997984D01*
X5932086Y-6997984D02*
X5951134Y-7007508D01*
X5951134Y-7007508D02*
X5960658Y-7017031D01*
X5960658Y-7017031D02*
X5970182Y-7036079D01*
X5970182Y-7036079D02*
X5979705Y-7074174D01*
X5979705Y-7074174D02*
X5979705Y-7121793D01*
X5979705Y-7121793D02*
X5970182Y-7159888D01*
X5970182Y-7159888D02*
X5960658Y-7178936D01*
X5960658Y-7178936D02*
X5951134Y-7188460D01*
X5951134Y-7188460D02*
X5932086Y-7197984D01*
X5932086Y-7197984D02*
X5913039Y-7197984D01*
X5913039Y-7197984D02*
X5893991Y-7188460D01*
X5893991Y-7188460D02*
X5884467Y-7178936D01*
X5884467Y-7178936D02*
X5874943Y-7159888D01*
X5874943Y-7159888D02*
X5865420Y-7121793D01*
X5865420Y-7121793D02*
X5865420Y-7074174D01*
X5865420Y-7074174D02*
X5874943Y-7036079D01*
X5874943Y-7036079D02*
X5884467Y-7017031D01*
X5884467Y-7017031D02*
X5893991Y-7007508D01*
X5893991Y-7007508D02*
X5913039Y-6997984D01*
X6065420Y-7197984D02*
X6065420Y-7064650D01*
X6065420Y-7083698D02*
X6074943Y-7074174D01*
X6074943Y-7074174D02*
X6093991Y-7064650D01*
X6093991Y-7064650D02*
X6122563Y-7064650D01*
X6122563Y-7064650D02*
X6141610Y-7074174D01*
X6141610Y-7074174D02*
X6151134Y-7093222D01*
X6151134Y-7093222D02*
X6151134Y-7197984D01*
X6151134Y-7093222D02*
X6160658Y-7074174D01*
X6160658Y-7074174D02*
X6179705Y-7064650D01*
X6179705Y-7064650D02*
X6208277Y-7064650D01*
X6208277Y-7064650D02*
X6227324Y-7074174D01*
X6227324Y-7074174D02*
X6236848Y-7093222D01*
X6236848Y-7093222D02*
X6236848Y-7197984D01*
X6332086Y-7197984D02*
X6332086Y-7064650D01*
X6332086Y-7083698D02*
X6341610Y-7074174D01*
X6341610Y-7074174D02*
X6360658Y-7064650D01*
X6360658Y-7064650D02*
X6389229Y-7064650D01*
X6389229Y-7064650D02*
X6408277Y-7074174D01*
X6408277Y-7074174D02*
X6417801Y-7093222D01*
X6417801Y-7093222D02*
X6417801Y-7197984D01*
X6417801Y-7093222D02*
X6427324Y-7074174D01*
X6427324Y-7074174D02*
X6446372Y-7064650D01*
X6446372Y-7064650D02*
X6474943Y-7064650D01*
X6474943Y-7064650D02*
X6493991Y-7074174D01*
X6493991Y-7074174D02*
X6503515Y-7093222D01*
X6503515Y-7093222D02*
X6503515Y-7197984D01*
X6893991Y-6988460D02*
X6722563Y-7245603D01*
X7151134Y-6997984D02*
X7170182Y-6997984D01*
X7170182Y-6997984D02*
X7189229Y-7007508D01*
X7189229Y-7007508D02*
X7198753Y-7017031D01*
X7198753Y-7017031D02*
X7208277Y-7036079D01*
X7208277Y-7036079D02*
X7217801Y-7074174D01*
X7217801Y-7074174D02*
X7217801Y-7121793D01*
X7217801Y-7121793D02*
X7208277Y-7159888D01*
X7208277Y-7159888D02*
X7198753Y-7178936D01*
X7198753Y-7178936D02*
X7189229Y-7188460D01*
X7189229Y-7188460D02*
X7170182Y-7197984D01*
X7170182Y-7197984D02*
X7151134Y-7197984D01*
X7151134Y-7197984D02*
X7132086Y-7188460D01*
X7132086Y-7188460D02*
X7122563Y-7178936D01*
X7122563Y-7178936D02*
X7113039Y-7159888D01*
X7113039Y-7159888D02*
X7103515Y-7121793D01*
X7103515Y-7121793D02*
X7103515Y-7074174D01*
X7103515Y-7074174D02*
X7113039Y-7036079D01*
X7113039Y-7036079D02*
X7122563Y-7017031D01*
X7122563Y-7017031D02*
X7132086Y-7007508D01*
X7132086Y-7007508D02*
X7151134Y-6997984D01*
X7303515Y-7178936D02*
X7313039Y-7188460D01*
X7313039Y-7188460D02*
X7303515Y-7197984D01*
X7303515Y-7197984D02*
X7293991Y-7188460D01*
X7293991Y-7188460D02*
X7303515Y-7178936D01*
X7303515Y-7178936D02*
X7303515Y-7197984D01*
X7436848Y-6997984D02*
X7455896Y-6997984D01*
X7455896Y-6997984D02*
X7474944Y-7007508D01*
X7474944Y-7007508D02*
X7484467Y-7017031D01*
X7484467Y-7017031D02*
X7493991Y-7036079D01*
X7493991Y-7036079D02*
X7503515Y-7074174D01*
X7503515Y-7074174D02*
X7503515Y-7121793D01*
X7503515Y-7121793D02*
X7493991Y-7159888D01*
X7493991Y-7159888D02*
X7484467Y-7178936D01*
X7484467Y-7178936D02*
X7474944Y-7188460D01*
X7474944Y-7188460D02*
X7455896Y-7197984D01*
X7455896Y-7197984D02*
X7436848Y-7197984D01*
X7436848Y-7197984D02*
X7417801Y-7188460D01*
X7417801Y-7188460D02*
X7408277Y-7178936D01*
X7408277Y-7178936D02*
X7398753Y-7159888D01*
X7398753Y-7159888D02*
X7389229Y-7121793D01*
X7389229Y-7121793D02*
X7389229Y-7074174D01*
X7389229Y-7074174D02*
X7398753Y-7036079D01*
X7398753Y-7036079D02*
X7408277Y-7017031D01*
X7408277Y-7017031D02*
X7417801Y-7007508D01*
X7417801Y-7007508D02*
X7436848Y-6997984D01*
X7579706Y-7017031D02*
X7589229Y-7007508D01*
X7589229Y-7007508D02*
X7608277Y-6997984D01*
X7608277Y-6997984D02*
X7655896Y-6997984D01*
X7655896Y-6997984D02*
X7674944Y-7007508D01*
X7674944Y-7007508D02*
X7684467Y-7017031D01*
X7684467Y-7017031D02*
X7693991Y-7036079D01*
X7693991Y-7036079D02*
X7693991Y-7055127D01*
X7693991Y-7055127D02*
X7684467Y-7083698D01*
X7684467Y-7083698D02*
X7570182Y-7197984D01*
X7570182Y-7197984D02*
X7693991Y-7197984D01*
X7760658Y-6997984D02*
X7884467Y-6997984D01*
X7884467Y-6997984D02*
X7817801Y-7074174D01*
X7817801Y-7074174D02*
X7846372Y-7074174D01*
X7846372Y-7074174D02*
X7865420Y-7083698D01*
X7865420Y-7083698D02*
X7874944Y-7093222D01*
X7874944Y-7093222D02*
X7884467Y-7112269D01*
X7884467Y-7112269D02*
X7884467Y-7159888D01*
X7884467Y-7159888D02*
X7874944Y-7178936D01*
X7874944Y-7178936D02*
X7865420Y-7188460D01*
X7865420Y-7188460D02*
X7846372Y-7197984D01*
X7846372Y-7197984D02*
X7789229Y-7197984D01*
X7789229Y-7197984D02*
X7770182Y-7188460D01*
X7770182Y-7188460D02*
X7760658Y-7178936D01*
X8055896Y-6997984D02*
X8017801Y-6997984D01*
X8017801Y-6997984D02*
X7998753Y-7007508D01*
X7998753Y-7007508D02*
X7989229Y-7017031D01*
X7989229Y-7017031D02*
X7970182Y-7045603D01*
X7970182Y-7045603D02*
X7960658Y-7083698D01*
X7960658Y-7083698D02*
X7960658Y-7159888D01*
X7960658Y-7159888D02*
X7970182Y-7178936D01*
X7970182Y-7178936D02*
X7979706Y-7188460D01*
X7979706Y-7188460D02*
X7998753Y-7197984D01*
X7998753Y-7197984D02*
X8036848Y-7197984D01*
X8036848Y-7197984D02*
X8055896Y-7188460D01*
X8055896Y-7188460D02*
X8065420Y-7178936D01*
X8065420Y-7178936D02*
X8074944Y-7159888D01*
X8074944Y-7159888D02*
X8074944Y-7112269D01*
X8074944Y-7112269D02*
X8065420Y-7093222D01*
X8065420Y-7093222D02*
X8055896Y-7083698D01*
X8055896Y-7083698D02*
X8036848Y-7074174D01*
X8036848Y-7074174D02*
X7998753Y-7074174D01*
X7998753Y-7074174D02*
X7979706Y-7083698D01*
X7979706Y-7083698D02*
X7970182Y-7093222D01*
X7970182Y-7093222D02*
X7960658Y-7112269D01*
X8151134Y-6997984D02*
X8151134Y-7036079D01*
X8227325Y-6997984D02*
X8227325Y-7036079D01*
X8522563Y-7274174D02*
X8513039Y-7264650D01*
X8513039Y-7264650D02*
X8493991Y-7236079D01*
X8493991Y-7236079D02*
X8484468Y-7217031D01*
X8484468Y-7217031D02*
X8474944Y-7188460D01*
X8474944Y-7188460D02*
X8465420Y-7140841D01*
X8465420Y-7140841D02*
X8465420Y-7102746D01*
X8465420Y-7102746D02*
X8474944Y-7055127D01*
X8474944Y-7055127D02*
X8484468Y-7026555D01*
X8484468Y-7026555D02*
X8493991Y-7007508D01*
X8493991Y-7007508D02*
X8513039Y-6978936D01*
X8513039Y-6978936D02*
X8522563Y-6969412D01*
X8636849Y-6997984D02*
X8655896Y-6997984D01*
X8655896Y-6997984D02*
X8674944Y-7007508D01*
X8674944Y-7007508D02*
X8684468Y-7017031D01*
X8684468Y-7017031D02*
X8693991Y-7036079D01*
X8693991Y-7036079D02*
X8703515Y-7074174D01*
X8703515Y-7074174D02*
X8703515Y-7121793D01*
X8703515Y-7121793D02*
X8693991Y-7159888D01*
X8693991Y-7159888D02*
X8684468Y-7178936D01*
X8684468Y-7178936D02*
X8674944Y-7188460D01*
X8674944Y-7188460D02*
X8655896Y-7197984D01*
X8655896Y-7197984D02*
X8636849Y-7197984D01*
X8636849Y-7197984D02*
X8617801Y-7188460D01*
X8617801Y-7188460D02*
X8608277Y-7178936D01*
X8608277Y-7178936D02*
X8598753Y-7159888D01*
X8598753Y-7159888D02*
X8589230Y-7121793D01*
X8589230Y-7121793D02*
X8589230Y-7074174D01*
X8589230Y-7074174D02*
X8598753Y-7036079D01*
X8598753Y-7036079D02*
X8608277Y-7017031D01*
X8608277Y-7017031D02*
X8617801Y-7007508D01*
X8617801Y-7007508D02*
X8636849Y-6997984D01*
X8941611Y-7197984D02*
X8941611Y-6997984D01*
X9027325Y-7197984D02*
X9027325Y-7093222D01*
X9027325Y-7093222D02*
X9017801Y-7074174D01*
X9017801Y-7074174D02*
X8998753Y-7064650D01*
X8998753Y-7064650D02*
X8970182Y-7064650D01*
X8970182Y-7064650D02*
X8951134Y-7074174D01*
X8951134Y-7074174D02*
X8941611Y-7083698D01*
X9151134Y-7197984D02*
X9132087Y-7188460D01*
X9132087Y-7188460D02*
X9122563Y-7178936D01*
X9122563Y-7178936D02*
X9113039Y-7159888D01*
X9113039Y-7159888D02*
X9113039Y-7102746D01*
X9113039Y-7102746D02*
X9122563Y-7083698D01*
X9122563Y-7083698D02*
X9132087Y-7074174D01*
X9132087Y-7074174D02*
X9151134Y-7064650D01*
X9151134Y-7064650D02*
X9179706Y-7064650D01*
X9179706Y-7064650D02*
X9198753Y-7074174D01*
X9198753Y-7074174D02*
X9208277Y-7083698D01*
X9208277Y-7083698D02*
X9217801Y-7102746D01*
X9217801Y-7102746D02*
X9217801Y-7159888D01*
X9217801Y-7159888D02*
X9208277Y-7178936D01*
X9208277Y-7178936D02*
X9198753Y-7188460D01*
X9198753Y-7188460D02*
X9179706Y-7197984D01*
X9179706Y-7197984D02*
X9151134Y-7197984D01*
X9332087Y-7197984D02*
X9313039Y-7188460D01*
X9313039Y-7188460D02*
X9303515Y-7169412D01*
X9303515Y-7169412D02*
X9303515Y-6997984D01*
X9484468Y-7188460D02*
X9465420Y-7197984D01*
X9465420Y-7197984D02*
X9427325Y-7197984D01*
X9427325Y-7197984D02*
X9408277Y-7188460D01*
X9408277Y-7188460D02*
X9398753Y-7169412D01*
X9398753Y-7169412D02*
X9398753Y-7093222D01*
X9398753Y-7093222D02*
X9408277Y-7074174D01*
X9408277Y-7074174D02*
X9427325Y-7064650D01*
X9427325Y-7064650D02*
X9465420Y-7064650D01*
X9465420Y-7064650D02*
X9484468Y-7074174D01*
X9484468Y-7074174D02*
X9493992Y-7093222D01*
X9493992Y-7093222D02*
X9493992Y-7112269D01*
X9493992Y-7112269D02*
X9398753Y-7131317D01*
X9570182Y-7188460D02*
X9589230Y-7197984D01*
X9589230Y-7197984D02*
X9627325Y-7197984D01*
X9627325Y-7197984D02*
X9646373Y-7188460D01*
X9646373Y-7188460D02*
X9655896Y-7169412D01*
X9655896Y-7169412D02*
X9655896Y-7159888D01*
X9655896Y-7159888D02*
X9646373Y-7140841D01*
X9646373Y-7140841D02*
X9627325Y-7131317D01*
X9627325Y-7131317D02*
X9598753Y-7131317D01*
X9598753Y-7131317D02*
X9579706Y-7121793D01*
X9579706Y-7121793D02*
X9570182Y-7102746D01*
X9570182Y-7102746D02*
X9570182Y-7093222D01*
X9570182Y-7093222D02*
X9579706Y-7074174D01*
X9579706Y-7074174D02*
X9598753Y-7064650D01*
X9598753Y-7064650D02*
X9627325Y-7064650D01*
X9627325Y-7064650D02*
X9646373Y-7074174D01*
X9893992Y-7121793D02*
X10046373Y-7121793D01*
X9970182Y-7197984D02*
X9970182Y-7045603D01*
X10379706Y-7064650D02*
X10379706Y-7197984D01*
X10332087Y-6988460D02*
X10284468Y-7131317D01*
X10284468Y-7131317D02*
X10408277Y-7131317D01*
X10627325Y-7188460D02*
X10646373Y-7197984D01*
X10646373Y-7197984D02*
X10684468Y-7197984D01*
X10684468Y-7197984D02*
X10703516Y-7188460D01*
X10703516Y-7188460D02*
X10713039Y-7169412D01*
X10713039Y-7169412D02*
X10713039Y-7159888D01*
X10713039Y-7159888D02*
X10703516Y-7140841D01*
X10703516Y-7140841D02*
X10684468Y-7131317D01*
X10684468Y-7131317D02*
X10655896Y-7131317D01*
X10655896Y-7131317D02*
X10636849Y-7121793D01*
X10636849Y-7121793D02*
X10627325Y-7102746D01*
X10627325Y-7102746D02*
X10627325Y-7093222D01*
X10627325Y-7093222D02*
X10636849Y-7074174D01*
X10636849Y-7074174D02*
X10655896Y-7064650D01*
X10655896Y-7064650D02*
X10684468Y-7064650D01*
X10684468Y-7064650D02*
X10703516Y-7074174D01*
X10827325Y-7197984D02*
X10808277Y-7188460D01*
X10808277Y-7188460D02*
X10798754Y-7169412D01*
X10798754Y-7169412D02*
X10798754Y-6997984D01*
X10932087Y-7197984D02*
X10913039Y-7188460D01*
X10913039Y-7188460D02*
X10903516Y-7178936D01*
X10903516Y-7178936D02*
X10893992Y-7159888D01*
X10893992Y-7159888D02*
X10893992Y-7102746D01*
X10893992Y-7102746D02*
X10903516Y-7083698D01*
X10903516Y-7083698D02*
X10913039Y-7074174D01*
X10913039Y-7074174D02*
X10932087Y-7064650D01*
X10932087Y-7064650D02*
X10960658Y-7064650D01*
X10960658Y-7064650D02*
X10979706Y-7074174D01*
X10979706Y-7074174D02*
X10989230Y-7083698D01*
X10989230Y-7083698D02*
X10998754Y-7102746D01*
X10998754Y-7102746D02*
X10998754Y-7159888D01*
X10998754Y-7159888D02*
X10989230Y-7178936D01*
X10989230Y-7178936D02*
X10979706Y-7188460D01*
X10979706Y-7188460D02*
X10960658Y-7197984D01*
X10960658Y-7197984D02*
X10932087Y-7197984D01*
X11055897Y-7064650D02*
X11132087Y-7064650D01*
X11084468Y-6997984D02*
X11084468Y-7169412D01*
X11084468Y-7169412D02*
X11093992Y-7188460D01*
X11093992Y-7188460D02*
X11113039Y-7197984D01*
X11113039Y-7197984D02*
X11132087Y-7197984D01*
X11189230Y-7188460D02*
X11208277Y-7197984D01*
X11208277Y-7197984D02*
X11246373Y-7197984D01*
X11246373Y-7197984D02*
X11265420Y-7188460D01*
X11265420Y-7188460D02*
X11274944Y-7169412D01*
X11274944Y-7169412D02*
X11274944Y-7159888D01*
X11274944Y-7159888D02*
X11265420Y-7140841D01*
X11265420Y-7140841D02*
X11246373Y-7131317D01*
X11246373Y-7131317D02*
X11217801Y-7131317D01*
X11217801Y-7131317D02*
X11198754Y-7121793D01*
X11198754Y-7121793D02*
X11189230Y-7102746D01*
X11189230Y-7102746D02*
X11189230Y-7093222D01*
X11189230Y-7093222D02*
X11198754Y-7074174D01*
X11198754Y-7074174D02*
X11217801Y-7064650D01*
X11217801Y-7064650D02*
X11246373Y-7064650D01*
X11246373Y-7064650D02*
X11265420Y-7074174D01*
X11341611Y-7274174D02*
X11351135Y-7264650D01*
X11351135Y-7264650D02*
X11370182Y-7236079D01*
X11370182Y-7236079D02*
X11379706Y-7217031D01*
X11379706Y-7217031D02*
X11389230Y-7188460D01*
X11389230Y-7188460D02*
X11398754Y-7140841D01*
X11398754Y-7140841D02*
X11398754Y-7102746D01*
X11398754Y-7102746D02*
X11389230Y-7055127D01*
X11389230Y-7055127D02*
X11379706Y-7026555D01*
X11379706Y-7026555D02*
X11370182Y-7007508D01*
X11370182Y-7007508D02*
X11351135Y-6978936D01*
X11351135Y-6978936D02*
X11341611Y-6969412D01*
M02*
